<svg width="667" height="667" viewBox="0 0 667 667" fill="none" xmlns="http://www.w3.org/2000/svg">
<path d="M41.6016 123.8C41.4208 122.681 41.3229 121.535 41.3229 120.364C41.3229 108.555 50.8959 98.9827 62.7047 98.9827C66.314 98.9827 69.7136 99.8787 72.6953 101.459C75.3073 102.844 79.6693 103.364 81.4765 99.2267C86.0781 87.9867 97.1197 80.068 110.017 80.068C116.619 80.068 122.733 82.1427 127.747 85.676C130.692 87.7507 135.788 87.58 137.464 82.8814C143.396 65.176 160.116 52.4187 179.817 52.4187C201.185 52.4187 219.044 67.424 223.441 87.4707C224.269 91.4507 227.227 94.0547 232.983 93.1374C234.563 92.8174 236.199 92.6494 237.872 92.6494C248.837 92.6494 258.119 99.8387 261.267 109.761C262.096 112.393 264.684 113.211 267.291 111.653C269.904 109.901 273.047 108.879 276.429 108.879C284.996 108.879 292.028 115.433 292.792 123.8H41.6016Z" fill="white"/>
<path d="M614.237 76.5227C613.313 76.5227 612.405 76.5867 611.517 76.712C609.031 77.1734 606.668 75.6654 606.344 72.7094C605.097 56.976 591.933 44.5974 575.88 44.5974C562.813 44.5974 551.668 52.8001 547.301 64.3361C546.273 67.3854 543.244 68.58 539.971 67.0734C535.641 64.716 530.68 63.3774 525.403 63.3774C511.925 63.3774 500.495 72.104 496.432 84.212H546.685H554.372H598.741H605.076H629.732C626.177 79.54 620.561 76.5227 614.237 76.5227" fill="white"/>
<path d="M201.367 599.349H449.489L474.588 545.161C474.588 545.161 550.165 532.684 563.855 508.513C572.839 492.256 559.363 473.861 558.721 467.872C558.08 461.883 570.984 445.912 570.415 441.635C569.844 437.356 561.288 431.937 561.288 431.937C561.288 431.937 571.412 427.803 572.98 423.096C574.549 418.391 564.424 397.285 570.129 382.597C572.98 379.603 596.696 376.177 600.736 365.403C606.583 351.141 556.153 292.047 555.868 286.485C555.584 280.924 561.287 268.804 561.288 268.803C564.477 262.027 554.225 238.232 551.96 231.081C548.219 219.28 543.712 207.715 538.331 196.564C528.653 176.513 516.135 157.804 500.712 141.711C431.569 69.5654 309.361 63.6227 228.149 118.879C190.733 144.336 166.167 185.227 159.601 229.813C153.851 268.88 161.348 317.873 183.113 351.511C183.116 351.515 231.74 426.661 235.732 470.012C239.725 513.361 201.367 599.349 201.367 599.349" fill="#C3935A"/>
<path d="M507.843 222.223C504.371 217.636 498.961 214.861 495.644 210.107C485.529 195.605 499.659 175.956 485.671 162.732C482.125 159.38 477.68 156.912 472.736 155.736C468.001 154.611 463.132 154.356 458.861 151.953C444.024 143.608 446.861 125.191 423.273 118.185C410.137 114.872 397.425 120.219 386.536 118.084C377.647 116.34 374.611 110.756 366.867 106.403C354.304 99.34 336.521 98.7787 325.712 107.951C322.113 111.007 319.327 115.019 314.939 117.039C307.123 120.636 297.905 116.596 289.183 115.945C277.525 115.075 265.596 121.1 260.203 130.583C257.464 135.401 256.197 141.089 251.997 144.931C246.491 149.967 237.843 150.239 230.42 152.403C221.672 154.955 214.159 160.841 209.519 168.336C203.933 177.355 204.443 185.809 206.365 195.744C208.185 205.16 201.321 213.509 196.503 221.048C190.863 229.876 188.597 240.92 191.62 250.964C196.644 267.659 213.303 275.536 230.609 275.536C237.728 275.536 481.648 275.536 481.648 275.536C487.017 275.536 493.815 274.073 496.653 272.683C506.632 266.388 512.884 255.863 514.023 244.997C514.851 237.087 512.971 228.996 507.843 222.223" fill="white"/>
<path d="M435.361 553.753L435.171 552.772C452.632 549.377 474.265 544.719 474.481 544.673L474.693 545.649C474.477 545.696 452.832 550.357 435.361 553.753Z" fill="#4E122B"/>
<path d="M174.273 581.557L172.752 594.022C172.399 596.551 173.036 599.195 175.187 599.195C175.187 599.195 221.367 599.195 225.475 599.195C228.669 595.544 219.311 589.149 204.857 585.805C204.857 585.805 199.835 583.676 198.619 580.328C197.401 576.98 174.273 581.557 174.273 581.557Z" fill="white"/>
<path d="M108.981 581.557L107.458 594.022C107.106 596.551 107.744 599.195 109.893 599.195C109.893 599.195 156.073 599.195 160.181 599.195C163.376 595.544 154.019 589.149 139.564 585.805C139.564 585.805 134.541 583.676 133.325 580.328C132.108 576.98 108.981 581.557 108.981 581.557Z" fill="white"/>
<path d="M121.686 359.66C106.404 402.012 102.341 581.897 106.028 581.556C110.791 584.391 138.664 581.556 138.664 581.556L155.687 389.148L157.74 389.261L171.068 581.556C174.904 584.633 202.525 581.556 202.525 581.556C202.525 581.556 211.776 402.179 195.179 357.877L121.686 359.66" fill="#4E122B"/>
<path d="M158.073 389.184C147.976 389.184 138.147 387.115 128.723 382.993L129.124 382.077C142.389 387.879 156.473 389.555 170.983 387.064L171.152 388.048C166.752 388.805 162.387 389.184 158.073 389.184" fill="#6F3052"/>
<path d="M195.965 375.841L195.171 375.232L198.989 370.251L199.784 370.861L195.965 375.841" fill="#6F3052"/>
<path d="M145.66 230.153L146.801 205.391L157.756 189.072L172.364 177.888L178.868 178.916C178.868 178.916 184.347 189.984 184.917 195.463C185.487 200.94 188.455 203.223 188.455 204.82C188.455 206.417 184.347 208.244 184.347 208.244C184.347 208.244 186.4 223.877 180.009 225.703C173.619 227.529 169.283 226.16 169.283 226.16L169.055 239.397C148.285 242.475 141.04 239.131 145.66 230.153" fill="#F8A48E"/>
<path d="M146.801 215.433C131.547 201.131 130.499 186.38 138.357 183.48C135.46 169.963 156.495 164.243 180.58 159.515C184.803 169.775 184.675 178.483 173.163 183.137C175.701 188.672 176.529 191.896 176.7 199.399C176.7 199.399 176.615 202.537 174.588 201.967C175.045 194.521 166.372 191.012 164.889 195.405C164.117 199.069 165.003 202.652 163.537 206.531C160.12 214.589 153.787 216.856 146.801 215.433Z" fill="#4E122B"/>
<path d="M169.783 226.16H168.783V222.8H169.783V226.16Z" fill="#4E122B"/>
<path d="M239.124 217.584C239.124 217.584 230.616 197.136 240.973 162.153C240.973 162.153 255.952 187.027 259.651 217.613L239.124 217.584" fill="#909836"/>
<path d="M235.836 217.589C236.416 210.305 233.447 202.888 229.321 195.425C238.048 201.297 244.76 208.472 248.469 217.589H235.836Z" fill="#909836"/>
<path d="M251.176 217.589C251.088 205.119 258.895 185.105 265.883 175.072L263.653 217.589H251.176Z" fill="#909836"/>
<path d="M233.793 217.589C233.793 217.589 228.025 208.472 216.683 207.117C216.683 207.117 234.339 199.505 243.167 217.613L233.793 217.589Z" fill="#909836"/>
<path d="M254.393 217.589C254.393 217.589 260.397 197.936 281.231 190.873C281.231 190.873 268.869 201.451 266.575 217.589H254.393Z" fill="#909836"/>
<path d="M242.719 216.639C239.961 211.08 234.581 208.389 234.527 208.363L234.967 207.465C235.2 207.579 240.701 210.323 243.615 216.195L242.719 216.639" fill="#4E122B"/>
<path d="M245.948 216.105C244.419 208.276 235.753 200.987 235.665 200.915L236.307 200.145C236.673 200.452 245.332 207.737 246.929 215.913L245.948 216.105" fill="#4E122B"/>
<path d="M251.675 216.011L250.677 215.956C251.152 207.168 254.881 196.735 254.92 196.631L255.86 196.969C255.823 197.072 252.144 207.372 251.675 216.011" fill="#4E122B"/>
<path d="M263.733 215.581H262.733C262.733 211.007 263.952 201.784 264.003 201.395L264.995 201.527C264.981 201.621 263.733 211.073 263.733 215.581" fill="#4E122B"/>
<path d="M233.117 217.353C233.117 217.353 232.2 241.837 241.015 247.856H258.827C266.459 244.941 266.724 217.353 266.724 217.353H233.117Z" fill="#B3583E"/>
<path d="M268.252 224.799H231.589L230.684 216.437L269.317 215.581L268.252 224.799Z" fill="#B3583E"/>
<path d="M266.724 225.299H233.117V224.299H266.724V225.299Z" fill="#4E122B"/>
<path d="M228.676 246.879C233.607 243.661 244.919 248.773 238.997 254.824C238.997 254.824 202.517 296.979 190.247 301.477C177.873 306.945 164.537 295.723 176.929 281.287C180.783 275.564 228.676 246.879 228.676 246.879" fill="#F8A48E"/>
<path d="M231.236 254.14C224.137 249.755 222.503 233.341 233.384 226.968C233.384 226.968 234.129 235.613 235.893 235.837C238.591 236.061 240.416 227.539 240.416 227.539C241.519 225.232 244.989 226.528 244.499 228.575C244.499 228.575 242.933 236.488 242.819 238.884C242.721 250.368 240.281 253.033 240.281 253.033C240.281 253.033 235.056 255.789 231.236 254.14" fill="#F8A48E"/>
<path d="M257.879 250.304C260.967 245.291 270.789 247.285 268.017 255.285C268.017 255.285 252.899 305.855 243.72 315.159C234.864 325.383 218.013 320.923 223.061 302.58C224.105 295.76 257.879 250.304 257.879 250.304" fill="#F8A48E"/>
<path d="M118.88 365.951C137.755 370.857 164.567 372.111 197.24 363.719C197.24 363.719 197.004 320.456 202.025 300.441C207.047 280.425 207.177 248.149 201.927 242.871C198.937 238.989 185.964 232.383 169.216 229.979C161.332 231.751 152.964 231.457 145.66 229.805C142.229 230.275 138.935 230.432 135.472 231.421C101.003 239.777 117.72 310.68 119.318 326.736C120.916 342.793 118.88 365.951 118.88 365.951" fill="#CC6D2F"/>
<path d="M125.885 350.745L119.304 333.524L120.239 333.167L126.82 350.388L125.885 350.745" fill="#4E122B"/>
<path d="M178.305 264.637C166.593 247.965 175.375 231.127 196.899 239.319C206.313 243.483 238.92 289.647 242.948 299.773C249.988 311.323 238.535 327.687 223.689 317.136C217.511 314.064 178.305 264.637 178.305 264.637" fill="#F8A48E"/>
<path d="M230.564 277.148C230.564 277.148 212.42 247.305 196.899 239.317C175.375 231.127 166.593 247.965 178.305 264.637C178.305 264.637 191.84 285.887 204.829 301.112C212.305 302.083 231.515 278.509 230.564 277.148Z" fill="#CC6D2F"/>
<path d="M240.947 296.155L233.348 284.455L234.187 283.911L241.785 295.611L240.947 296.155Z" fill="#4E122B"/>
<path d="M199.917 295.881L182.189 275.868L182.936 275.205L200.664 295.219L199.917 295.881Z" fill="#4E122B"/>
<path d="M268.335 254.14C275.433 249.755 277.068 233.341 266.187 226.968C266.187 226.968 265.441 235.613 263.676 235.837C260.979 236.061 259.155 227.539 259.155 227.539C258.052 225.232 254.581 226.528 255.072 228.575C255.072 228.575 256.637 236.488 256.752 238.884C256.867 241.28 257.892 250.409 257.892 250.409C258.24 254.568 260.136 258.671 268.335 254.14" fill="#F8A48E"/>
<path d="M202.927 298.711L202.516 297.799C210.357 294.264 220.241 285.121 228.311 273.94L229.12 274.525C220.831 286.012 211.039 295.053 202.927 298.711" fill="#4E122B"/>
<path d="M336.347 194.315C327.128 191.04 321.623 184.996 315.961 176.421C324.141 177.804 331.512 180.637 337.108 186.647C331.813 179.493 328.944 169.432 327.081 158.164C334.916 165.893 341.132 174.224 343.76 183.887C343.319 172.253 346.547 160.529 351.456 148.764C353.617 161.767 354.027 173.931 351.108 184.5C354.08 177.088 359.932 171.057 367.689 165.941C364.716 174.409 361.339 181.444 357.181 185.725C360.664 181.617 365.788 179.004 371.561 176.984C366.421 185.285 359.548 191.384 352.355 194.315H336.347" fill="#909836"/>
<path d="M339.767 194.397C339.08 190.287 336.725 186.972 336.701 186.939L337.515 186.355C337.616 186.497 340.028 189.895 340.755 194.232L339.767 194.397" fill="#4E122B"/>
<path d="M345.176 194.471C344.159 191.347 343.3 184.247 343.264 183.945L344.256 183.827C344.265 183.899 345.141 191.131 346.127 194.16L345.176 194.471Z" fill="#4E122B"/>
<path d="M348.116 194.553L347.236 194.077C349.093 190.649 350.199 187.495 350.612 184.432L351.604 184.567C351.173 187.751 350.032 191.019 348.116 194.553" fill="#4E122B"/>
<path d="M350.485 194.575L349.632 194.056C351.781 190.517 356.62 185.584 356.824 185.375L357.537 186.077C357.488 186.127 352.576 191.136 350.485 194.575Z" fill="#4E122B"/>
<path d="M310.987 191.845C310.837 193.164 310.752 194.501 310.752 195.86C310.752 215.164 328.213 229.805 347.517 229.805C366.82 229.805 380.655 215.968 380.655 195.86C380.655 194.501 380.569 193.164 380.419 191.845C353.108 191.845 331.315 191.845 310.987 191.845" fill="#F9A529"/>
<path d="M383.319 197.096H308.087V196.096H383.319V197.096" fill="#4E122B"/>
<path d="M378.219 196.771L345.508 108.928L312.981 196.771L312.044 196.423L345.505 106.055L379.156 196.421L378.219 196.771" fill="#4E122B"/>
<path d="M347.999 108.303C347.999 109.776 346.807 110.969 345.333 110.969C343.861 110.969 342.667 109.776 342.667 108.303C342.667 106.831 343.861 105.636 345.333 105.636C346.807 105.636 347.999 106.831 347.999 108.303Z" fill="#4E122B"/>
<path d="M74.6005 599.349C52.2057 591.953 47.0041 565.356 45.2099 534.952C57.4167 552.388 67.3869 570.351 73.4245 589.239C60.7281 533.414 83.2995 476.488 83.2995 476.488C83.2995 476.488 98.6735 549.559 93.4104 576.271C98.6527 552.016 111.937 530.667 129.854 510.995C124.564 547.259 118.922 565.283 102.654 590.371C110.311 578.292 118.922 573.964 134.088 568.798C128.39 582.62 120.5 593.639 108.458 599.349H74.6005Z" fill="#838826"/>
<path d="M77.2109 599.345C74.8948 595.448 73.026 589.636 72.9479 589.391L73.9011 589.085C73.9193 589.145 75.814 595.036 78.0703 598.835L77.2109 599.345" fill="#4E122B"/>
<path d="M87.124 599.54L86.1995 599.157C89.3568 591.539 91.6161 583.81 92.9167 576.188L93.9036 576.357C92.5901 584.053 90.3088 591.853 87.124 599.54Z" fill="#4E122B"/>
<path d="M100.779 599.395L99.7839 599.304C100.078 596.084 100.891 593.008 102.199 590.163L103.108 590.58C101.846 593.321 101.064 596.288 100.779 599.395Z" fill="#4E122B"/>
<path d="M82.1735 599.384C79.9844 568.72 79.7579 535.597 81.4781 498.125L82.4781 498.172C80.7579 535.604 80.986 568.689 83.1708 599.313L82.1735 599.384" fill="#4E122B"/>
<path d="M81.2292 527.619L80.8177 526.707C84.2579 525.149 86.5927 522.841 87.7579 519.848L88.6902 520.209C87.4271 523.457 84.9167 525.949 81.2292 527.619Z" fill="#4E122B"/>
<path d="M80.7385 557.329C77.2109 556.527 74.3505 554.919 72.2369 552.553L72.9817 551.886C74.9557 554.095 77.6396 555.597 80.9599 556.356L80.7385 557.329" fill="#4E122B"/>
<path d="M81.5484 576.74L81.1917 575.805C84.288 574.622 87.0016 572.567 89.2552 569.696L90.0417 570.313C87.6745 573.329 84.8166 575.491 81.5484 576.74Z" fill="#4E122B"/>
<path d="M417.981 261.901V251.38H420.144V249.189L379.791 248.767C375.709 248.767 371.948 252.528 371.948 256.609C371.948 260.691 375.756 264.029 379.837 264.029H420.144V261.901H417.981" fill="#F9A529"/>
<path d="M434.549 261.901V251.38H436.709V249.189L396.357 248.767C392.276 248.767 388.515 252.528 388.515 256.609C388.515 260.691 392.323 264.029 396.404 264.029H436.709V261.901H434.549" fill="#FAB854"/>
<path d="M434.549 251.38H396.873C393.969 251.38 391.613 253.736 391.613 256.64C391.613 259.545 393.969 261.901 396.873 261.901H434.549V251.38Z" fill="white"/>
<path d="M394.885 254.149L394.872 253.483L434.543 252.688L434.556 253.355L394.885 254.149" fill="#4E122B"/>
<path d="M399.42 256.973L399.417 256.307L434.548 256.164L434.551 256.831L399.42 256.973Z" fill="#4E122B"/>
<path d="M434.549 260.844H396.921V260.177H434.549V260.844Z" fill="#4E122B"/>
<path d="M372.365 265.636V273.565H370.736V275.539L432.008 275.536C435.085 275.536 437.921 272.7 437.921 269.624C437.921 266.548 435.049 264.029 431.973 264.029H370.736V265.636H372.365" fill="#B3583E"/>
<path d="M366.987 265.636V273.565H365.359V275.531L388.667 275.536C391.744 275.536 394.58 272.7 394.58 269.624C394.58 266.548 391.708 264.029 388.632 264.029H365.359V265.636H366.987" fill="#9E3D30"/>
<path d="M366.987 273.565H388.277C390.468 273.565 392.243 271.791 392.243 269.6C392.243 267.411 390.468 265.636 388.277 265.636H366.987V273.565Z" fill="white"/>
<path d="M366.996 272.663L366.977 271.996L389.772 271.396L389.791 272.063L366.996 272.663Z" fill="#4E122B"/>
<path d="M366.988 270.043L366.985 269.376L386.359 269.267L386.361 269.933L366.988 270.043Z" fill="#4E122B"/>
<path d="M388.241 267.016H366.987V266.349H388.241V267.016Z" fill="#4E122B"/>
<path d="M428.444 249.124L369.06 248.767V244.864L428.805 243.389L428.444 249.124" fill="#A04665"/>
<path d="M376.136 596.093L370.641 510.407C370.705 508.668 369.204 507.203 367.264 507.111L316.909 504.965C314.832 504.865 313.101 506.373 313.155 508.236L303.088 596.239C303.14 597.973 304.728 599.355 306.667 599.349L372.583 599.18C374.501 599.175 376.071 597.809 376.136 596.093" fill="#B3583E"/>
<path d="M357.505 509.667L360.964 509.055C360.935 508.897 358.008 493.316 343.321 492.663C328.753 492.031 323.701 505.953 323.653 506.092L326.971 507.251C327.137 506.78 331.231 495.661 343.165 496.171C355.073 496.7 357.483 509.537 357.505 509.667" fill="#B3583E"/>
<path d="M318.411 563.251L275.308 509.772L269.413 516.035L309.569 593.032L318.411 563.251" fill="#B3583E"/>
<path d="M275.308 509.772C279.473 502.392 282.629 494.392 280.004 490.661C271.116 484.952 247.4 512.628 251.268 519.259C254.4 522.115 264.128 519.319 269.413 516.035L275.308 509.772" fill="#B3583E"/>
<path d="M365.808 582.524C382.939 575.861 401.636 554.291 405.816 536.364C407.741 528.117 406.464 521.251 402.121 516.509C398.323 512.361 393.815 510.315 388.765 510.373C376.692 510.555 365.797 523.028 365.34 523.561L368.617 526.388C368.716 526.272 378.716 514.845 388.84 514.701C388.905 514.701 388.969 514.7 389.033 514.7C392.776 514.7 396.015 516.251 398.929 519.432C403.141 524.031 402.707 530.643 401.601 535.381C397.697 552.124 380.237 572.267 364.24 578.489L365.808 582.524" fill="#B3583E"/>
<path d="M304.659 583.909L304.451 582.929C307.857 582.208 310.58 578.537 311.921 572.86C313.703 565.321 312.705 554.859 307.985 551.095L308.608 550.313C313.635 554.32 314.748 565.255 312.895 573.088C311.46 579.16 308.457 583.104 304.659 583.909" fill="#4E122B"/>
<path d="M269.704 516.441L269.121 515.629C271.66 513.807 273.595 511.752 274.873 509.524L275.741 510.021C274.392 512.375 272.361 514.535 269.704 516.441" fill="#4E122B"/>
<path d="M252.031 519.803C251.752 519.803 251.477 519.787 251.211 519.755L251.325 518.763C258.401 519.545 270.505 508.015 276.192 499.716C279.029 495.576 280.288 492.277 279.561 490.895L280.447 490.428C281.7 492.815 278.836 497.627 277.016 500.281C271.255 508.693 259.613 519.801 252.031 519.803" fill="#4E122B"/>
<path d="M360.339 507.316L356.575 507.156L356.616 506.156L360.38 506.316L360.339 507.316Z" fill="#4E122B"/>
<path d="M327.776 505.928L323.976 505.767L324.017 504.767L327.817 504.928L327.776 505.928Z" fill="#4E122B"/>
<path d="M370.981 523.532L370.633 518.088L371.631 518.024L371.979 523.468L370.981 523.532Z" fill="#4E122B"/>
<path d="M374.457 577.724L374.137 572.732L375.135 572.667L375.455 577.659L374.457 577.724Z" fill="#4E122B"/>
<path d="M371.711 527.515L311.284 524.896L311.328 523.896L371.755 526.515L371.711 527.515Z" fill="#4E122B"/>
<path d="M371.949 531.545L310.729 529.82L310.757 528.82L371.977 530.545L371.949 531.545" fill="#4E122B"/>
<path d="M375.931 593.532L303.568 592.486L303.584 591.486L375.947 592.532L375.931 593.532" fill="#4E122B"/>
<path d="M375.68 589.744L304.136 587.456L304.167 586.456L375.711 588.744L375.68 589.744Z" fill="#4E122B"/>
<path d="M514.437 288.043L513.588 287.515C516.428 282.956 520.552 280.285 525.515 279.792L525.613 280.787C520.972 281.249 517.107 283.757 514.437 288.043" fill="#4E122B"/>
<path d="M508.985 287.821C508.983 287.779 508.58 283.553 505.241 282.505L505.54 281.551C509.525 282.803 509.967 287.536 509.983 287.737L508.985 287.821" fill="#4E122B"/>
<path d="M470.039 280.929C470.039 280.929 482.699 271.596 476.981 266.611C463.552 255.427 428.851 293.681 429.749 297.68C430.647 301.679 472.777 309.345 479.984 290.055C484.647 278.221 470.039 280.929 470.039 280.929Z" fill="#909836"/>
<path d="M470.039 280.929C470.039 280.929 459.453 281.761 429.749 297.68C430.647 301.679 472.777 309.345 479.984 290.055C484.647 278.221 470.039 280.929 470.039 280.929Z" fill="#838826"/>
<path d="M443.583 291.145L443.144 290.247C474.937 274.792 495.096 274.581 503.06 289.619L502.177 290.087C494.512 275.615 474.8 275.971 443.583 291.145" fill="#4E122B"/>
<path d="M431.476 297.459L430.991 296.584C433.487 295.203 435.959 293.88 438.337 292.655L438.796 293.544C436.424 294.764 433.963 296.083 431.476 297.459" fill="#4E122B"/>
<path d="M500.292 252.267C500.292 252.267 500.897 264.863 490.844 263.652C480.791 262.441 488.785 226.313 488.785 226.313C488.785 226.313 521.247 245.241 512.525 253.477C506.332 260.124 500.292 252.267 500.292 252.267Z" fill="#838826"/>
<path d="M500.292 252.267L488.785 226.313C488.785 226.313 521.247 245.241 512.525 253.477C506.332 260.124 500.292 252.267 500.292 252.267Z" fill="#909836"/>
<path d="M522.248 263.297C531.135 251.733 546.644 244.795 564.648 238.815C564.648 238.815 556.231 267.036 545.208 270.973C534.428 274.061 522.248 263.297 522.248 263.297" fill="#909836"/>
<path d="M484.023 252.529C484.023 252.529 468.227 234.815 456.644 226.313C456.644 226.313 458.857 247.177 465.884 252.581C472.933 257.316 484.023 252.529 484.023 252.529Z" fill="#909836"/>
<path d="M517.212 270.301L516.359 269.78C526.064 253.893 545.221 245.283 564.479 238.344L564.817 239.285C545.732 246.161 526.755 254.679 517.212 270.301Z" fill="#4E122B"/>
<path d="M511.153 287.843L510.161 287.715C510.821 282.564 512.255 277.716 514.421 273.304L515.32 273.745C513.201 278.057 511.8 282.8 511.153 287.843" fill="#4E122B"/>
<path d="M507.453 287.819C505.565 264.073 496.668 242.857 489.536 229.24L490.421 228.776C497.597 242.475 506.549 263.825 508.451 287.739L507.453 287.819" fill="#4E122B"/>
<path d="M504.539 287.968C498.033 272.096 488.621 257.568 476.564 244.785L477.291 244.099C489.433 256.971 498.913 271.603 505.464 287.589L504.539 287.968Z" fill="#4E122B"/>
<path d="M472.641 240.777C467.669 235.877 462.187 231.145 456.341 226.712L456.945 225.915C462.824 230.375 468.341 235.136 473.344 240.064L472.641 240.777Z" fill="#4E122B"/>
<path d="M521.641 286.664H495.711C486.497 296.881 470.391 335.597 476.635 342.551C482.005 348.532 494.323 360.296 494.323 360.296H508.115H509.237H523.029C523.029 360.296 536.903 349.513 540.717 342.551C538.524 311.996 521.641 286.664 521.641 286.664" fill="#4E122B"/>
<path d="M551.432 384.181H467.481C466.02 375.911 467.675 369.635 466.815 360.859C463.751 343.265 462.036 330.984 461.884 316.473L555.173 321.275C555.397 343.3 554.269 364.353 551.432 384.181" fill="#B3583E"/>
<path d="M461.884 316.473L450.421 339.933L492.361 339.489L562.053 346.331L555.173 321.275L461.884 316.473" fill="#B3583E"/>
<path d="M555.124 346.152L492.311 339.987L462.617 340.305L462.607 339.305L492.356 338.989L555.223 345.157L555.124 346.152" fill="#4E122B"/>
<path d="M492.453 339.98L492.268 338.999L501.152 337.329L501.337 338.311L492.453 339.98Z" fill="#4E122B"/>
<path d="M472.128 370.86L466.485 362.179L467.324 361.635L472.967 370.315L472.128 370.86Z" fill="#4E122B"/>
<path d="M558.423 394.208H461.029V384.181H558.423V394.208" fill="#4E122B"/>
<path d="M558.549 463.612H460.904V458.599H558.549V463.612Z" fill="#4E122B"/>
<path d="M568.7 537.279H450.753V532.265H568.7V537.279Z" fill="#4E122B"/>
<path d="M451.249 599.408L450.256 599.291L474.892 392.213L475.884 392.331L451.249 599.408" fill="#4E122B"/>
<path d="M568.203 599.408L543.569 392.331L544.561 392.213L569.196 599.291L568.203 599.408" fill="#4E122B"/>
<path d="M494.111 300.583C494.111 300.583 495.953 291.109 489.929 292.881C476.148 297.279 485.129 331.795 488.32 332.945C491.511 334.099 517.887 314.831 507.629 301.216C501.444 292.697 494.111 300.583 494.111 300.583Z" fill="#909836"/>
<path d="M494.111 300.583C494.111 300.583 489.067 320.64 488.32 332.945C491.511 334.099 517.887 314.831 507.629 301.216C501.444 292.697 494.111 300.583 494.111 300.583" fill="#838826"/>
<path d="M489.207 328.165L488.215 328.033C488.231 327.924 489.696 316.995 492.12 305.873C495.411 290.787 498.851 282.536 502.345 281.351C503.583 281.043 505.217 281.395 505.824 281.649L505.436 282.571C504.936 282.361 503.528 282.085 502.625 282.309C496.347 284.443 490.808 316.135 489.207 328.165" fill="#4E122B"/>
<path d="M548.975 293.509C548.975 293.509 536.424 284.029 533.271 290.928C526.369 306.985 563.528 335.868 567.105 333.869C570.684 331.871 575.436 282.801 554.891 281.38C542.221 280.277 548.975 293.509 548.975 293.509" fill="#909836"/>
<path d="M548.975 293.509C548.975 293.509 536.424 284.029 533.271 290.928C526.369 306.985 563.528 335.868 567.105 333.869C566.079 324.441 555.371 297.389 548.975 293.509Z" fill="#838826"/>
<path d="M565.683 331.424C565.132 328.739 564.497 326.091 563.796 323.556L564.759 323.288C565.468 325.847 566.107 328.516 566.661 331.224L565.683 331.424" fill="#4E122B"/>
<path d="M561.755 317.001C552.556 290.569 536.592 279.708 525.613 280.787L525.515 279.792C536.865 278.66 553.323 289.729 562.7 316.673L561.755 317.001Z" fill="#4E122B"/>
<path d="M480.648 524.415C484.351 528.327 489.205 531.136 494.683 532.265H505.579C511.055 531.136 515.911 528.327 519.612 524.415H480.648Z" fill="#CC6D2F"/>
<path d="M485.875 483.871C478.315 488.751 473.807 497.012 473.807 505.996C473.807 518.427 482.628 529.268 494.784 531.776L505.579 531.765C517.633 529.268 526.455 518.427 526.455 505.996C526.455 497.012 521.945 488.751 514.385 483.871H485.875ZM494.683 532.765C481.964 530.152 472.807 518.899 472.807 505.996C472.807 496.62 477.536 488.004 485.459 482.949L485.583 482.871H514.679L514.803 482.949C522.724 488.004 527.455 496.62 527.455 505.996C527.455 518.899 518.297 530.152 505.68 532.755L494.683 532.765" fill="#4E122B"/>
<path d="M477.197 506.227H476.197C476.197 500.839 477.948 495.751 481.259 491.512L482.048 492.127C478.873 496.188 477.197 501.064 477.197 506.227Z" fill="#DFAD7D"/>
<path d="M484.445 489.504L483.76 488.775C484.845 487.757 486.031 486.839 487.281 486.04L487.817 486.884C486.62 487.648 485.484 488.529 484.445 489.504Z" fill="#DFAD7D"/>
<path d="M493.629 524.415C486.359 521.832 482.016 517.065 477.551 510.303C484.003 511.392 489.815 513.627 494.231 518.365C490.053 512.725 487.791 504.789 486.32 495.903C492.5 501.999 497.403 508.569 499.477 516.189C499.128 507.016 501.673 497.768 505.545 488.488C507.251 498.744 507.573 508.337 505.271 516.673C507.615 510.828 512.231 506.072 518.349 502.036C516.004 508.715 513.34 514.263 510.06 517.639C512.809 514.4 516.849 512.339 521.403 510.747C517.348 517.293 511.927 522.101 506.255 524.415H493.629" fill="#838826"/>
<path d="M496.223 524.496C495.687 521.288 493.843 518.684 493.824 518.657L494.637 518.075C494.717 518.188 496.633 520.887 497.209 524.332L496.223 524.496" fill="#4E122B"/>
<path d="M500.492 524.569C499.687 522.096 499.009 516.485 498.98 516.249L499.973 516.129C499.98 516.187 500.668 521.88 501.443 524.259L500.492 524.569" fill="#4E122B"/>
<path d="M503.004 524.652L502.124 524.176C503.584 521.485 504.451 519.011 504.775 516.605L505.767 516.741C505.424 519.267 504.521 521.855 503.004 524.652" fill="#4E122B"/>
<path d="M504.871 524.673L504.017 524.155C505.717 521.355 509.541 517.453 509.703 517.289L510.417 517.989C510.377 518.029 506.512 521.972 504.871 524.673Z" fill="#4E122B"/>
<path d="M536.761 456.376V445.396H539.016V443.108L496.9 442.668C492.64 442.668 488.712 446.593 488.712 450.855C488.712 455.113 492.689 458.599 496.948 458.599H539.016V456.376H536.761Z" fill="#F9A529"/>
<path d="M554.052 456.376V445.396H556.308V443.108L514.191 442.668C509.931 442.668 506.004 446.593 506.004 450.855C506.004 455.113 509.979 458.599 514.24 458.599H556.308V456.376H554.052Z" fill="#FAB854"/>
<path d="M554.052 445.396H514.729C511.699 445.396 509.24 447.855 509.24 450.887C509.24 453.919 511.699 456.376 514.729 456.376H554.052V445.396" fill="white"/>
<path d="M512.653 448.271L512.641 447.604L554.045 446.776L554.059 447.443L512.653 448.271" fill="#4E122B"/>
<path d="M517.385 451.22L517.383 450.553L554.051 450.403L554.053 451.069L517.385 451.22" fill="#4E122B"/>
<path d="M554.052 455.259H514.779V454.592H554.052V455.259Z" fill="#4E122B"/>
<path d="M553.481 443.076L488.819 442.748C488.327 442.745 487.925 442.34 487.928 441.848L487.948 438.012C487.951 437.52 488.356 437.12 488.848 437.121L553.511 437.451C554.003 437.453 554.404 437.859 554.401 438.351L554.381 442.187C554.379 442.679 553.975 443.079 553.481 443.076" fill="#A04665"/>
<path d="M496.505 442.801L492.943 442.783L492.972 437.143L496.533 437.16L496.505 442.801Z" fill="white"/>
<path d="M549.359 443.071L545.796 443.052L545.824 437.412L549.387 437.429L549.359 443.071Z" fill="white"/>
<path d="M440.487 599.088C440.487 599.088 442.997 588.327 449.115 585.347C455.232 582.365 466.212 579.385 473.271 581.424C480.329 583.464 485.663 587.229 487.545 590.993C489.428 594.757 492.721 595.888 491.153 599.088H440.487" fill="#84564C"/>
<path d="M474.369 599.095C474.369 599.095 474.844 593.295 480.071 591.517C485.297 589.739 493.819 587.098 499.257 590.837C502.813 594.601 501.768 599.095 501.768 599.095H474.369" fill="#84564C"/>
<path d="M474.868 599.137L473.871 599.055C473.892 598.805 474.435 592.905 479.909 591.043C481.963 590.347 484.192 589.629 486.587 589.112L486.797 590.088C484.452 590.595 482.255 591.303 480.232 591.991C475.387 593.639 474.887 598.914 474.868 599.137" fill="#4E122B"/>
<path d="M557.841 599.312C566.933 593.748 581.185 583.521 576.691 576.383C570.229 566.121 551.696 594.522 551.696 594.522C551.696 594.522 569.883 556.259 552.999 554.893C538.967 553.759 541.629 582.353 542.928 592.051C541.529 583.371 537.017 560.014 529.349 562.868C519.957 566.367 538.071 596.779 538.071 596.779C538.071 596.779 521.78 570.472 512.171 577.216C505.953 581.581 518.736 594.049 531.233 599.312H557.841" fill="#838826"/>
<path d="M531.203 595.91C525.628 591.82 521.413 587.497 518.315 582.695L519.156 582.153C522.185 586.852 526.319 591.086 531.795 595.103L531.203 595.91Z" fill="#4E122B"/>
<path d="M545.7 599.507L544.753 599.192C548.871 586.805 551.233 573.679 551.769 560.177L552.769 560.216C552.228 573.81 549.851 587.031 545.7 599.507" fill="#4E122B"/>
<path d="M541.204 599.431C536.983 589.477 533.823 579.655 531.811 570.236L532.789 570.028C534.788 579.384 537.929 589.145 542.127 599.04L541.204 599.431" fill="#4E122B"/>
<path d="M556.601 595.256L555.987 594.468C556.081 594.395 565.405 587.11 570.645 580.391L571.435 581.005C566.117 587.824 556.696 595.184 556.601 595.256Z" fill="#4E122B"/>
<path d="M287.452 255.799C285.632 257.987 291.76 271.895 306.163 275.536H325.808C335.495 272.459 347.892 257.451 344.519 255.799C341.144 254.147 289.272 253.611 287.452 255.799Z" fill="#CC6D2F"/>
<path d="M357.084 303.201C355.837 304.005 354.865 305.024 354.372 306.441C354.124 307.157 354.003 307.916 354.013 308.672C354.019 309.06 354.057 309.447 354.135 309.827C354.191 310.107 354.239 310.637 354.472 310.832C354.855 311.152 355.631 310.729 355.972 310.519C356.407 310.248 356.795 309.897 357.143 309.523C357.777 308.836 358.28 308.025 358.688 307.187C359.179 306.175 359.676 304.881 359.56 303.741C359.523 303.357 359.421 302.872 359.163 302.571C358.887 302.251 358.461 302.405 358.148 302.576C357.799 302.765 357.437 302.973 357.084 303.201Z" fill="#838826"/>
<path d="M361.205 301.785C362.687 301.719 364.071 301.983 365.293 302.853C365.911 303.292 366.449 303.84 366.88 304.463C367.1 304.781 367.292 305.119 367.449 305.472C367.567 305.733 367.835 306.193 367.757 306.488C367.632 306.971 366.755 307.077 366.355 307.101C365.843 307.135 365.323 307.073 364.823 306.969C363.907 306.779 363.029 306.409 362.209 305.961C361.223 305.423 360.068 304.657 359.501 303.661C359.311 303.325 359.109 302.872 359.145 302.476C359.185 302.056 359.621 301.935 359.976 301.892C360.371 301.844 360.785 301.804 361.205 301.785" fill="#838826"/>
<path d="M351.081 294.309C349.967 295.288 349.151 296.437 348.871 297.912C348.731 298.655 348.72 299.424 348.84 300.171C348.903 300.553 348.997 300.929 349.129 301.295C349.224 301.563 349.351 302.081 349.609 302.24C350.033 302.501 350.741 301.971 351.047 301.711C351.439 301.38 351.771 300.977 352.06 300.556C352.588 299.783 352.968 298.909 353.249 298.019C353.588 296.947 353.891 295.595 353.611 294.484C353.516 294.109 353.345 293.644 353.045 293.384C352.727 293.107 352.328 293.321 352.043 293.536C351.724 293.776 351.397 294.033 351.081 294.309" fill="#838826"/>
<path d="M354.952 292.308C356.408 292.027 357.815 292.087 359.152 292.769C359.827 293.113 360.44 293.577 360.957 294.131C361.22 294.413 361.46 294.72 361.668 295.047C361.821 295.287 362.153 295.704 362.12 296.007C362.067 296.501 361.212 296.735 360.82 296.817C360.319 296.924 359.797 296.94 359.287 296.911C358.353 296.855 357.429 296.617 356.555 296.295C355.5 295.905 354.245 295.316 353.539 294.413C353.301 294.109 353.037 293.689 353.016 293.293C352.992 292.871 353.408 292.688 353.752 292.593C354.136 292.489 354.539 292.389 354.952 292.308" fill="#838826"/>
<path d="M345.916 283.435C344.672 284.243 343.701 285.264 343.215 286.684C342.971 287.4 342.851 288.16 342.864 288.917C342.869 289.304 342.912 289.691 342.988 290.069C343.045 290.349 343.096 290.88 343.329 291.075C343.713 291.393 344.488 290.968 344.828 290.755C345.263 290.483 345.649 290.132 345.996 289.755C346.629 289.067 347.128 288.255 347.533 287.415C348.021 286.401 348.513 285.107 348.395 283.967C348.355 283.583 348.252 283.097 347.992 282.797C347.715 282.477 347.291 282.633 346.977 282.805C346.628 282.997 346.268 283.205 345.916 283.435" fill="#838826"/>
<path d="M350.032 282.004C351.513 281.932 352.897 282.192 354.124 283.057C354.743 283.495 355.284 284.04 355.716 284.661C355.937 284.979 356.131 285.317 356.289 285.669C356.408 285.929 356.676 286.389 356.6 286.684C356.477 287.167 355.599 287.276 355.2 287.303C354.688 287.336 354.168 287.277 353.668 287.176C352.751 286.988 351.871 286.621 351.051 286.177C350.063 285.641 348.904 284.88 348.333 283.887C348.143 283.551 347.94 283.099 347.976 282.703C348.012 282.281 348.449 282.16 348.803 282.115C349.199 282.067 349.612 282.025 350.032 282.004" fill="#838826"/>
<path d="M345.108 270.667C343.752 271.264 342.631 272.116 341.921 273.44C341.564 274.107 341.323 274.836 341.215 275.585C341.159 275.969 341.139 276.357 341.152 276.744C341.164 277.029 341.129 277.561 341.328 277.791C341.655 278.167 342.489 277.872 342.859 277.717C343.331 277.519 343.769 277.233 344.172 276.917C344.908 276.34 345.531 275.619 346.065 274.853C346.709 273.933 347.404 272.733 347.469 271.589C347.491 271.204 347.469 270.709 347.26 270.371C347.039 270.011 346.593 270.096 346.257 270.216C345.881 270.348 345.493 270.496 345.108 270.667" fill="#838826"/>
<path d="M349.401 269.916C350.875 270.084 352.2 270.563 353.271 271.615C353.811 272.145 354.256 272.771 354.585 273.453C354.752 273.803 354.887 274.167 354.988 274.54C355.063 274.816 355.255 275.313 355.132 275.592C354.932 276.048 354.048 276.015 353.649 275.976C353.14 275.928 352.637 275.787 352.157 275.605C351.284 275.272 350.475 274.769 349.736 274.199C348.847 273.511 347.825 272.573 347.423 271.501C347.287 271.139 347.161 270.66 347.259 270.275C347.364 269.865 347.813 269.815 348.171 269.828C348.569 269.843 348.984 269.868 349.401 269.916" fill="#838826"/>
<path d="M342.988 259.224C341.811 260.127 340.923 261.22 340.547 262.672C340.357 263.405 340.297 264.171 340.368 264.925C340.405 265.311 340.476 265.693 340.583 266.065C340.66 266.339 340.752 266.864 341 267.04C341.407 267.329 342.147 266.844 342.469 266.607C342.881 266.303 343.24 265.921 343.556 265.52C344.135 264.784 344.569 263.936 344.908 263.067C345.315 262.02 345.707 260.691 345.5 259.563C345.431 259.183 345.292 258.707 345.009 258.428C344.708 258.131 344.297 258.319 343.999 258.515C343.664 258.732 343.321 258.968 342.988 259.224" fill="#838826"/>
<path d="M346.981 257.48C348.453 257.293 349.855 257.447 351.144 258.216C351.793 258.604 352.375 259.105 352.855 259.692C353.099 259.992 353.317 260.313 353.504 260.652C353.641 260.903 353.945 261.34 353.892 261.64C353.807 262.131 352.939 262.307 352.543 262.364C352.035 262.437 351.513 262.419 351.005 262.356C350.077 262.24 349.172 261.943 348.319 261.563C347.293 261.105 346.08 260.435 345.435 259.488C345.216 259.168 344.981 258.732 344.985 258.335C344.989 257.913 345.416 257.757 345.764 257.687C346.155 257.607 346.565 257.532 346.981 257.48" fill="#838826"/>
<path d="M360.875 311.196L359.909 310.933C361.091 306.591 358.804 302.047 356.676 299C355.869 297.843 354.977 296.703 354.115 295.6C352.283 293.259 350.389 290.839 349.145 288.063C347.096 283.48 346.976 278.329 346.859 273.347C346.735 268.116 346.607 262.707 344.187 258.137C343.085 256.057 341.717 254.615 340.124 253.848C338.488 253.06 335.629 253.317 333.859 255.105L333.147 254.4C335.257 252.273 338.573 251.991 340.556 252.947C342.348 253.808 343.867 255.396 345.069 257.669C347.601 262.447 347.732 267.976 347.859 273.324C347.973 278.207 348.091 283.256 350.06 287.653C351.253 290.319 353.108 292.691 354.903 294.984C355.773 296.097 356.673 297.248 357.496 298.427C359.745 301.649 362.157 306.481 360.875 311.196" fill="#4E122B"/>
<path d="M351.376 374.991C349.989 375.519 348.825 376.312 348.049 377.596C347.657 378.245 347.38 378.961 347.233 379.704C347.157 380.084 347.117 380.471 347.112 380.857C347.108 381.143 347.045 381.672 347.233 381.912C347.54 382.305 348.388 382.052 348.765 381.917C349.248 381.743 349.7 381.48 350.117 381.187C350.881 380.647 351.541 379.959 352.115 379.223C352.807 378.336 353.561 377.175 353.687 376.035C353.728 375.651 353.731 375.156 353.54 374.807C353.337 374.436 352.888 374.499 352.547 374.6C352.164 374.713 351.768 374.841 351.376 374.991" fill="#6E7D22"/>
<path d="M354.489 366.955C353.008 366.909 351.628 367.195 350.419 368.083C349.808 368.528 349.275 369.084 348.855 369.713C348.639 370.035 348.452 370.375 348.299 370.731C348.185 370.993 347.924 371.457 348.005 371.751C348.139 372.232 349.017 372.325 349.419 372.344C349.929 372.369 350.448 372.301 350.947 372.191C351.86 371.985 352.733 371.604 353.545 371.145C354.524 370.592 355.668 369.811 356.221 368.807C356.408 368.469 356.6 368.012 356.559 367.617C356.515 367.196 356.076 367.083 355.721 367.044C355.324 367.003 354.911 366.968 354.489 366.955" fill="#6E7D22"/>
<path d="M358.687 368.132C359.944 368.917 360.931 369.921 361.443 371.333C361.701 372.044 361.835 372.803 361.835 373.559C361.835 373.945 361.801 374.333 361.731 374.713C361.679 374.995 361.637 375.525 361.407 375.724C361.029 376.049 360.247 375.639 359.903 375.431C359.464 375.167 359.071 374.823 358.717 374.453C358.072 373.775 357.559 372.972 357.14 372.139C356.635 371.136 356.119 369.849 356.217 368.707C356.252 368.321 356.344 367.836 356.599 367.529C356.869 367.205 357.299 367.355 357.613 367.521C357.967 367.705 358.329 367.909 358.687 368.132" fill="#6E7D22"/>
<path d="M309.903 349.655C308.421 349.601 307.039 349.88 305.824 350.761C305.212 351.205 304.677 351.757 304.253 352.385C304.035 352.705 303.848 353.045 303.693 353.4C303.579 353.661 303.313 354.125 303.393 354.419C303.524 354.9 304.404 354.997 304.804 355.02C305.315 355.047 305.833 354.981 306.333 354.872C307.248 354.673 308.123 354.296 308.937 353.841C309.919 353.293 311.067 352.517 311.624 351.516C311.812 351.179 312.008 350.723 311.969 350.328C311.925 349.908 311.487 349.791 311.133 349.751C310.737 349.707 310.323 349.671 309.903 349.655" fill="#6E7D22"/>
<path d="M314.092 350.853C315.347 351.645 316.329 352.655 316.833 354.068C317.088 354.781 317.217 355.539 317.215 356.296C317.212 356.683 317.176 357.071 317.104 357.451C317.051 357.731 317.007 358.261 316.775 358.46C316.396 358.783 315.615 358.367 315.272 358.159C314.835 357.892 314.444 357.545 314.092 357.175C313.451 356.493 312.941 355.688 312.527 354.853C312.027 353.847 311.516 352.557 311.621 351.417C311.656 351.031 311.753 350.545 312.008 350.241C312.281 349.917 312.708 350.069 313.024 350.237C313.375 350.424 313.739 350.628 314.092 350.853" fill="#6E7D22"/>
<path d="M313.353 335.252C311.927 335.661 310.7 336.355 309.819 337.569C309.375 338.181 309.037 338.872 308.829 339.6C308.721 339.972 308.648 340.355 308.611 340.74C308.584 341.024 308.477 341.545 308.644 341.8C308.917 342.217 309.783 342.037 310.169 341.933C310.664 341.801 311.137 341.579 311.579 341.319C312.385 340.847 313.1 340.216 313.735 339.531C314.496 338.705 315.348 337.612 315.568 336.487C315.643 336.108 315.687 335.615 315.527 335.251C315.356 334.864 314.903 334.889 314.553 334.963C314.163 335.043 313.757 335.137 313.353 335.252" fill="#6E7D22"/>
<path d="M317.708 335.091C319.145 335.456 320.393 336.111 321.311 337.297C321.775 337.896 322.133 338.577 322.365 339.297C322.483 339.665 322.568 340.045 322.617 340.429C322.653 340.712 322.776 341.231 322.617 341.491C322.359 341.916 321.485 341.763 321.096 341.671C320.597 341.553 320.119 341.345 319.669 341.1C318.848 340.652 318.113 340.044 317.46 339.379C316.672 338.579 315.788 337.511 315.533 336.393C315.448 336.016 315.388 335.525 315.536 335.156C315.696 334.764 316.148 334.776 316.5 334.837C316.893 334.907 317.301 334.987 317.708 335.091Z" fill="#6E7D22"/>
<path d="M311.544 317.971C310.168 318.524 309.02 319.339 308.267 320.639C307.888 321.293 307.625 322.015 307.491 322.76C307.423 323.141 307.389 323.528 307.391 323.916C307.393 324.201 307.34 324.731 307.533 324.968C307.847 325.355 308.691 325.087 309.064 324.944C309.543 324.761 309.989 324.491 310.403 324.188C311.157 323.635 311.804 322.935 312.364 322.188C313.036 321.288 313.771 320.112 313.873 318.972C313.909 318.587 313.903 318.091 313.705 317.747C313.496 317.379 313.048 317.451 312.708 317.559C312.328 317.679 311.935 317.813 311.544 317.971" fill="#6E7D22"/>
<path d="M315.86 317.363C317.327 317.577 318.636 318.1 319.671 319.187C320.193 319.735 320.619 320.375 320.923 321.068C321.08 321.421 321.203 321.791 321.292 322.168C321.357 322.445 321.533 322.948 321.401 323.223C321.187 323.673 320.304 323.611 319.907 323.559C319.397 323.493 318.9 323.336 318.428 323.139C317.565 322.777 316.772 322.249 316.053 321.653C315.188 320.937 314.199 319.967 313.831 318.881C313.705 318.515 313.596 318.032 313.707 317.651C313.824 317.245 314.276 317.209 314.632 317.235C315.031 317.263 315.444 317.301 315.86 317.363Z" fill="#6E7D22"/>
<path d="M268.869 323.511C267.387 323.539 266.024 323.892 264.859 324.839C264.271 325.317 263.768 325.897 263.379 326.547C263.18 326.879 263.011 327.229 262.875 327.592C262.775 327.859 262.537 328.336 262.633 328.625C262.789 329.099 263.672 329.148 264.073 329.147C264.587 329.147 265.099 329.053 265.592 328.917C266.495 328.667 267.348 328.243 268.136 327.744C269.087 327.141 270.189 326.304 270.692 325.275C270.861 324.927 271.031 324.461 270.969 324.068C270.904 323.651 270.46 323.559 270.104 323.539C269.705 323.516 269.291 323.503 268.869 323.511" fill="#6E7D22"/>
<path d="M273.12 324.475C274.415 325.199 275.452 326.152 276.033 327.535C276.327 328.233 276.497 328.983 276.535 329.739C276.555 330.125 276.54 330.513 276.488 330.897C276.451 331.18 276.436 331.713 276.216 331.923C275.856 332.267 275.053 331.895 274.7 331.705C274.248 331.464 273.839 331.139 273.468 330.787C272.789 330.143 272.236 329.367 271.775 328.556C271.22 327.579 270.641 326.319 270.683 325.175C270.697 324.788 270.765 324.297 271.004 323.98C271.259 323.641 271.695 323.769 272.017 323.919C272.379 324.087 272.753 324.271 273.12 324.475" fill="#6E7D22"/>
<path d="M271.356 309.812C269.885 310.013 268.573 310.524 267.528 311.601C267 312.144 266.568 312.779 266.256 313.471C266.097 313.823 265.971 314.191 265.879 314.567C265.811 314.843 265.631 315.344 265.759 315.62C265.971 316.072 266.853 316.019 267.252 315.971C267.759 315.911 268.259 315.757 268.733 315.564C269.599 315.211 270.397 314.689 271.121 314.101C271.995 313.393 272.992 312.432 273.371 311.351C273.497 310.985 273.612 310.503 273.505 310.121C273.392 309.713 272.94 309.673 272.585 309.696C272.187 309.72 271.772 309.755 271.356 309.812" fill="#6E7D22"/>
<path d="M275.689 310.273C277.06 310.84 278.2 311.667 278.94 312.972C279.313 313.631 279.571 314.355 279.697 315.101C279.761 315.483 279.792 315.871 279.787 316.257C279.781 316.543 279.829 317.073 279.636 317.308C279.316 317.692 278.477 317.416 278.103 317.269C277.627 317.083 277.183 316.808 276.772 316.501C276.024 315.941 275.383 315.235 274.831 314.483C274.165 313.577 273.443 312.395 273.351 311.252C273.319 310.867 273.331 310.372 273.531 310.028C273.744 309.664 274.191 309.739 274.529 309.851C274.908 309.975 275.301 310.113 275.689 310.273" fill="#6E7D22"/>
<path d="M271.317 290.473C269.939 291.023 268.787 291.833 268.031 293.128C267.648 293.781 267.381 294.503 267.245 295.248C267.176 295.628 267.14 296.016 267.141 296.403C267.143 296.688 267.087 297.219 267.277 297.455C267.591 297.843 268.435 297.579 268.811 297.437C269.289 297.256 269.737 296.988 270.151 296.687C270.908 296.136 271.556 295.439 272.119 294.695C272.797 293.797 273.535 292.624 273.643 291.484C273.679 291.099 273.675 290.604 273.479 290.257C273.271 289.889 272.823 289.96 272.481 290.065C272.101 290.185 271.708 290.319 271.317 290.473" fill="#6E7D22"/>
<path d="M275.635 289.883C277.101 290.104 278.408 290.632 279.439 291.723C279.959 292.272 280.383 292.913 280.684 293.608C280.839 293.963 280.961 294.332 281.048 294.709C281.112 294.987 281.285 295.491 281.153 295.765C280.936 296.213 280.055 296.148 279.657 296.095C279.148 296.028 278.651 295.868 278.181 295.668C277.319 295.304 276.529 294.772 275.811 294.175C274.948 293.455 273.963 292.48 273.599 291.393C273.477 291.027 273.368 290.544 273.48 290.163C273.6 289.756 274.052 289.723 274.408 289.749C274.805 289.779 275.219 289.82 275.635 289.883" fill="#6E7D22"/>
<path d="M273.013 270.937C271.533 271.037 270.188 271.457 269.072 272.46C268.508 272.967 268.033 273.571 267.677 274.239C267.493 274.58 267.343 274.937 267.224 275.305C267.139 275.579 266.923 276.065 267.033 276.351C267.212 276.815 268.097 276.821 268.497 276.801C269.009 276.776 269.519 276.656 270.004 276.496C270.893 276.203 271.724 275.737 272.487 275.2C273.407 274.553 274.468 273.663 274.919 272.609C275.071 272.253 275.217 271.78 275.137 271.391C275.051 270.977 274.603 270.907 274.247 270.904C273.848 270.901 273.432 270.908 273.013 270.937" fill="#6E7D22"/>
<path d="M277.305 271.692C278.633 272.351 279.715 273.252 280.365 274.605C280.692 275.288 280.899 276.028 280.975 276.781C281.013 277.167 281.017 277.556 280.984 277.941C280.96 278.225 280.972 278.759 280.761 278.979C280.419 279.34 279.599 279.008 279.237 278.836C278.773 278.617 278.349 278.313 277.961 277.98C277.252 277.369 276.661 276.621 276.161 275.833C275.559 274.884 274.92 273.655 274.905 272.509C274.9 272.123 274.944 271.629 275.168 271.301C275.405 270.951 275.847 271.056 276.176 271.191C276.545 271.34 276.927 271.505 277.305 271.692" fill="#6E7D22"/>
<path d="M283.384 254.315C281.952 253.932 280.543 253.895 279.163 254.483C278.467 254.779 277.821 255.199 277.268 255.715C276.984 255.979 276.725 256.268 276.495 256.58C276.325 256.808 275.965 257.201 275.977 257.505C275.996 258.003 276.832 258.295 277.216 258.405C277.709 258.547 278.229 258.599 278.741 258.604C279.677 258.613 280.613 258.441 281.509 258.179C282.588 257.864 283.88 257.363 284.647 256.512C284.907 256.225 285.199 255.825 285.248 255.431C285.301 255.012 284.9 254.8 284.563 254.683C284.187 254.551 283.791 254.423 283.384 254.315" fill="#6E7D22"/>
<path d="M287.201 256.417C288.248 257.469 288.979 258.672 289.156 260.163C289.247 260.915 289.201 261.681 289.031 262.419C288.941 262.796 288.82 263.165 288.665 263.52C288.551 263.78 288.389 264.288 288.119 264.429C287.677 264.661 287.009 264.081 286.721 263.803C286.355 263.444 286.051 263.02 285.792 262.579C285.317 261.772 285.001 260.873 284.783 259.965C284.52 258.873 284.311 257.503 284.667 256.415C284.788 256.047 284.989 255.595 285.307 255.356C285.644 255.101 286.028 255.344 286.297 255.577C286.597 255.839 286.907 256.117 287.201 256.417" fill="#6E7D22"/>
<path d="M305.255 303.047C304.057 303.924 303.147 304.999 302.74 306.443C302.535 307.171 302.459 307.936 302.513 308.691C302.541 309.077 302.604 309.461 302.703 309.835C302.775 310.111 302.856 310.639 303.1 310.82C303.5 311.116 304.252 310.648 304.579 310.417C304.997 310.121 305.364 309.749 305.688 309.353C306.281 308.631 306.735 307.792 307.091 306.929C307.523 305.891 307.941 304.571 307.757 303.44C307.697 303.057 307.568 302.58 307.292 302.293C306.997 301.991 306.583 302.169 306.279 302.359C305.94 302.569 305.592 302.799 305.255 303.047" fill="#6E7D22"/>
<path d="M309.284 301.388C310.759 301.233 312.156 301.416 313.428 302.212C314.071 302.613 314.641 303.128 315.108 303.724C315.347 304.028 315.557 304.355 315.737 304.699C315.868 304.951 316.163 305.395 316.104 305.695C316.008 306.183 315.137 306.34 314.74 306.389C314.231 306.452 313.709 306.423 313.203 306.348C312.277 306.212 311.379 305.896 310.533 305.499C309.519 305.019 308.319 304.323 307.695 303.363C307.483 303.039 307.256 302.597 307.269 302.201C307.283 301.779 307.712 301.632 308.063 301.568C308.455 301.497 308.867 301.432 309.284 301.388" fill="#6E7D22"/>
<path d="M299.421 288.109C298.185 288.987 297.244 290.06 296.823 291.505C296.611 292.233 296.532 292.999 296.588 293.753C296.619 294.139 296.684 294.524 296.785 294.897C296.86 295.173 296.943 295.7 297.196 295.883C297.609 296.179 298.384 295.711 298.723 295.479C299.155 295.184 299.533 294.811 299.868 294.416C300.481 293.693 300.949 292.855 301.319 291.992C301.763 290.953 302.197 289.633 302.008 288.501C301.944 288.12 301.811 287.641 301.527 287.356C301.221 287.053 300.792 287.232 300.479 287.421C300.131 287.632 299.771 287.861 299.421 288.109" fill="#6E7D22"/>
<path d="M303.584 286.451C305.108 286.296 306.551 286.479 307.865 287.275C308.529 287.676 309.119 288.191 309.6 288.787C309.847 289.091 310.065 289.417 310.251 289.761C310.387 290.013 310.692 290.457 310.631 290.756C310.531 291.245 309.631 291.404 309.22 291.452C308.695 291.515 308.155 291.485 307.633 291.411C306.676 291.275 305.748 290.959 304.875 290.56C303.825 290.081 302.588 289.385 301.941 288.425C301.724 288.101 301.489 287.66 301.503 287.264C301.517 286.841 301.96 286.695 302.321 286.631C302.728 286.559 303.152 286.495 303.584 286.451" fill="#6E7D22"/>
<path d="M298.813 271.909C297.321 272.168 296.009 272.732 295.007 273.855C294.503 274.421 294.1 275.077 293.827 275.783C293.688 276.144 293.581 276.519 293.511 276.9C293.46 277.181 293.308 277.693 293.457 277.965C293.703 278.412 294.604 278.323 295.009 278.26C295.528 278.179 296.029 278.005 296.501 277.793C297.367 277.405 298.149 276.851 298.855 276.231C299.703 275.485 300.663 274.48 300.979 273.379C301.088 273.005 301.172 272.517 301.037 272.137C300.895 271.731 300.429 271.709 300.067 271.744C299.66 271.784 299.237 271.835 298.813 271.909" fill="#6E7D22"/>
<path d="M303.285 272.205C304.728 272.723 305.951 273.508 306.795 274.793C307.22 275.441 307.532 276.16 307.709 276.905C307.801 277.287 307.857 277.675 307.876 278.064C307.891 278.352 307.975 278.884 307.791 279.127C307.488 279.525 306.609 279.28 306.217 279.147C305.716 278.977 305.243 278.719 304.804 278.425C303.999 277.891 303.297 277.205 302.681 276.472C301.94 275.585 301.123 274.425 300.953 273.28C300.896 272.893 300.875 272.395 301.057 272.043C301.252 271.667 301.715 271.725 302.069 271.825C302.467 271.935 302.877 272.059 303.285 272.205" fill="#6E7D22"/>
<path d="M304.624 256.569C303.111 256.5 301.707 256.767 300.487 257.647C299.871 258.091 299.337 258.644 298.919 259.275C298.703 259.597 298.519 259.94 298.368 260.297C298.256 260.56 297.997 261.027 298.087 261.325C298.229 261.813 299.128 261.921 299.536 261.948C300.06 261.981 300.588 261.92 301.095 261.815C302.024 261.623 302.908 261.251 303.729 260.799C304.719 260.253 305.873 259.479 306.421 258.472C306.605 258.132 306.796 257.672 306.747 257.272C306.695 256.845 306.245 256.723 305.881 256.679C305.477 256.631 305.053 256.589 304.624 256.569" fill="#6E7D22"/>
<path d="M308.925 257.825C310.223 258.641 311.248 259.673 311.793 261.111C312.068 261.835 312.216 262.603 312.229 263.369C312.236 263.761 312.207 264.153 312.143 264.537C312.093 264.821 312.06 265.359 311.828 265.556C311.448 265.88 310.643 265.451 310.289 265.236C309.836 264.961 309.429 264.607 309.064 264.227C308.393 263.531 307.857 262.709 307.415 261.86C306.881 260.835 306.333 259.525 306.416 258.371C306.444 257.98 306.532 257.489 306.785 257.185C307.056 256.86 307.496 257.017 307.82 257.191C308.184 257.384 308.559 257.595 308.925 257.825" fill="#6E7D22"/>
<path d="M356.129 353.616C354.671 353.887 353.384 354.46 352.391 355.584C351.889 356.152 351.488 356.808 351.211 357.513C351.069 357.872 350.96 358.247 350.885 358.627C350.831 358.907 350.675 359.416 350.816 359.685C351.048 360.127 351.927 360.029 352.323 359.964C352.828 359.879 353.32 359.701 353.784 359.487C354.633 359.092 355.404 358.533 356.1 357.912C356.937 357.163 357.889 356.155 358.215 355.056C358.325 354.685 358.417 354.199 358.292 353.821C358.159 353.42 357.705 353.403 357.351 353.441C356.955 353.484 356.541 353.539 356.129 353.616" fill="#6E7D22"/>
<path d="M360.479 353.869C361.875 354.369 363.055 355.14 363.856 356.411C364.26 357.049 364.552 357.761 364.713 358.5C364.796 358.879 364.845 359.264 364.859 359.651C364.867 359.936 364.94 360.465 364.756 360.708C364.457 361.107 363.604 360.871 363.225 360.743C362.74 360.579 362.283 360.325 361.86 360.039C361.084 359.515 360.412 358.84 359.823 358.115C359.115 357.243 358.337 356.095 358.191 354.96C358.141 354.576 358.128 354.081 358.311 353.728C358.507 353.353 358.957 353.408 359.301 353.503C359.685 353.608 360.084 353.728 360.479 353.869" fill="#6E7D22"/>
<path d="M351.333 340.475C350.197 341.427 349.357 342.559 349.044 344.027C348.887 344.767 348.86 345.535 348.964 346.284C349.017 346.668 349.104 347.047 349.227 347.415C349.316 347.685 349.429 348.205 349.687 348.371C350.105 348.64 350.823 348.125 351.136 347.873C351.533 347.551 351.875 347.155 352.173 346.74C352.72 345.98 353.117 345.115 353.419 344.231C353.78 343.167 354.113 341.821 353.859 340.704C353.772 340.328 353.612 339.86 353.317 339.592C353.005 339.307 352.601 339.515 352.311 339.723C351.988 339.955 351.655 340.204 351.333 340.475" fill="#6E7D22"/>
<path d="M355.248 338.56C356.709 338.309 358.115 338.401 359.436 339.113C360.103 339.472 360.705 339.949 361.209 340.513C361.468 340.803 361.7 341.115 361.901 341.445C362.049 341.689 362.371 342.113 362.332 342.416C362.267 342.909 361.409 343.124 361.015 343.197C360.511 343.293 359.988 343.297 359.479 343.255C358.547 343.18 357.629 342.921 356.76 342.58C355.716 342.167 354.475 341.551 353.789 340.633C353.557 340.323 353.304 339.897 353.291 339.5C353.276 339.079 353.695 338.904 354.04 338.817C354.427 338.721 354.833 338.631 355.248 338.56" fill="#6E7D22"/>
<path d="M342.719 328.808C341.583 329.76 340.743 330.891 340.429 332.36C340.271 333.1 340.244 333.868 340.348 334.617C340.401 335.001 340.489 335.38 340.611 335.748C340.701 336.019 340.815 336.539 341.072 336.703C341.489 336.973 342.208 336.459 342.521 336.205C342.92 335.884 343.26 335.488 343.559 335.073C344.104 334.313 344.503 333.447 344.804 332.564C345.165 331.5 345.499 330.155 345.244 329.037C345.156 328.661 344.997 328.192 344.703 327.925C344.391 327.64 343.987 327.848 343.697 328.056C343.372 328.288 343.04 328.537 342.719 328.808" fill="#6E7D22"/>
<path d="M346.633 326.892C348.095 326.643 349.5 326.735 350.821 327.447C351.488 327.805 352.091 328.281 352.595 328.847C352.853 329.136 353.085 329.447 353.287 329.779C353.433 330.023 353.756 330.445 353.717 330.748C353.652 331.243 352.795 331.456 352.4 331.531C351.896 331.627 351.373 331.631 350.865 331.588C349.931 331.513 349.015 331.255 348.145 330.913C347.1 330.5 345.86 329.884 345.173 328.965C344.943 328.656 344.688 328.231 344.675 327.833C344.661 327.412 345.08 327.237 345.425 327.151C345.812 327.055 346.219 326.964 346.633 326.892" fill="#6E7D22"/>
<path d="M335.864 314.7C334.575 315.433 333.545 316.396 332.976 317.784C332.688 318.485 332.524 319.236 332.492 319.992C332.477 320.379 332.495 320.768 332.549 321.151C332.589 321.433 332.608 321.965 332.831 322.173C333.195 322.515 333.993 322.136 334.345 321.944C334.796 321.697 335.201 321.369 335.569 321.015C336.243 320.364 336.789 319.584 337.243 318.768C337.789 317.785 338.359 316.521 338.307 315.377C338.288 314.991 338.215 314.501 337.975 314.185C337.716 313.851 337.283 313.981 336.96 314.135C336.6 314.305 336.228 314.492 335.864 314.7" fill="#6E7D22"/>
<path d="M340.056 313.515C341.539 313.531 342.907 313.872 344.08 314.808C344.671 315.281 345.179 315.859 345.575 316.503C345.776 316.833 345.948 317.183 346.088 317.544C346.189 317.809 346.431 318.285 346.337 318.575C346.185 319.049 345.303 319.107 344.903 319.109C344.389 319.113 343.875 319.024 343.38 318.892C342.477 318.651 341.62 318.233 340.827 317.741C339.872 317.148 338.76 316.319 338.251 315.293C338.079 314.948 337.904 314.484 337.963 314.091C338.024 313.672 338.468 313.576 338.823 313.553C339.22 313.528 339.637 313.511 340.056 313.515" fill="#6E7D22"/>
<path d="M335.927 297.123C334.469 297.393 333.181 297.965 332.188 299.091C331.687 299.657 331.285 300.313 331.007 301.017C330.865 301.377 330.755 301.751 330.681 302.131C330.627 302.411 330.471 302.919 330.612 303.189C330.844 303.631 331.723 303.535 332.119 303.468C332.624 303.384 333.115 303.207 333.58 302.992C334.428 302.599 335.2 302.04 335.896 301.417C336.735 300.669 337.687 299.663 338.012 298.564C338.123 298.193 338.213 297.707 338.089 297.329C337.956 296.928 337.503 296.909 337.148 296.948C336.753 296.991 336.34 297.045 335.927 297.123" fill="#6E7D22"/>
<path d="M340.277 297.379C341.673 297.88 342.852 298.651 343.652 299.92C344.056 300.56 344.348 301.272 344.509 302.011C344.591 302.389 344.641 302.775 344.652 303.163C344.661 303.447 344.735 303.975 344.552 304.219C344.252 304.617 343.4 304.381 343.02 304.252C342.533 304.088 342.077 303.835 341.653 303.548C340.879 303.024 340.207 302.348 339.62 301.624C338.912 300.751 338.135 299.603 337.987 298.467C337.939 298.084 337.925 297.588 338.109 297.236C338.305 296.861 338.755 296.916 339.099 297.011C339.483 297.116 339.881 297.236 340.277 297.379" fill="#6E7D22"/>
<path d="M338.211 280.327C336.753 280.597 335.467 281.169 334.472 282.295C333.972 282.861 333.569 283.517 333.292 284.221C333.149 284.581 333.039 284.955 332.965 285.333C332.911 285.613 332.755 286.124 332.896 286.393C333.128 286.835 334.007 286.739 334.403 286.672C334.908 286.587 335.4 286.411 335.864 286.196C336.712 285.803 337.484 285.244 338.181 284.623C339.019 283.873 339.971 282.865 340.297 281.768C340.407 281.397 340.499 280.911 340.373 280.533C340.241 280.132 339.788 280.113 339.433 280.152C339.036 280.195 338.625 280.251 338.211 280.327" fill="#6E7D22"/>
<path d="M342.561 280.583C343.957 281.084 345.137 281.855 345.937 283.124C346.341 283.764 346.632 284.475 346.793 285.215C346.876 285.593 346.924 285.979 346.937 286.365C346.947 286.651 347.02 287.179 346.836 287.423C346.536 287.821 345.684 287.585 345.305 287.456C344.819 287.292 344.363 287.039 343.939 286.752C343.163 286.228 342.491 285.553 341.904 284.828C341.196 283.955 340.419 282.807 340.272 281.671C340.223 281.287 340.211 280.792 340.395 280.44C340.589 280.065 341.039 280.119 341.383 280.215C341.768 280.32 342.165 280.441 342.561 280.583Z" fill="#6E7D22"/>
<path d="M336.269 265.856C334.973 266.577 333.935 267.529 333.352 268.912C333.057 269.609 332.885 270.359 332.847 271.115C332.827 271.501 332.841 271.889 332.892 272.273C332.929 272.556 332.944 273.089 333.164 273.3C333.525 273.644 334.327 273.273 334.681 273.084C335.133 272.843 335.543 272.519 335.915 272.167C336.593 271.524 337.147 270.748 337.608 269.937C338.165 268.96 338.747 267.703 338.705 266.557C338.692 266.171 338.624 265.68 338.385 265.363C338.132 265.025 337.696 265.152 337.372 265.301C337.011 265.468 336.637 265.651 336.269 265.856Z" fill="#6E7D22"/>
<path d="M340.475 264.712C341.957 264.743 343.32 265.097 344.484 266.045C345.071 266.524 345.573 267.105 345.963 267.755C346.16 268.087 346.329 268.437 346.465 268.8C346.564 269.068 346.801 269.545 346.705 269.833C346.548 270.307 345.665 270.356 345.264 270.355C344.752 270.353 344.239 270.259 343.745 270.121C342.844 269.872 341.991 269.445 341.203 268.945C340.255 268.343 339.151 267.504 338.651 266.473C338.481 266.125 338.312 265.66 338.375 265.268C338.44 264.851 338.884 264.759 339.241 264.739C339.639 264.717 340.055 264.704 340.475 264.712" fill="#6E7D22"/>
<path d="M328.328 257.492C327.579 258.772 327.168 260.119 327.368 261.607C327.469 262.357 327.701 263.089 328.052 263.76C328.232 264.104 328.441 264.431 328.68 264.736C328.856 264.96 329.139 265.412 329.435 265.481C329.921 265.595 330.423 264.868 330.633 264.525C330.9 264.088 331.088 263.601 331.229 263.109C331.487 262.209 331.571 261.26 331.556 260.328C331.539 259.204 331.4 257.824 330.783 256.859C330.576 256.533 330.267 256.145 329.9 255.993C329.509 255.831 329.2 256.161 328.996 256.453C328.769 256.781 328.54 257.129 328.328 257.492" fill="#6E7D22"/>
<path d="M331.369 254.371C332.663 253.643 334.017 253.257 335.5 253.483C336.249 253.596 336.977 253.843 337.643 254.204C337.981 254.389 338.307 254.605 338.605 254.849C338.828 255.028 339.275 255.32 339.339 255.617C339.444 256.104 338.707 256.595 338.363 256.797C337.92 257.056 337.428 257.236 336.935 257.369C336.032 257.611 335.081 257.677 334.148 257.647C333.025 257.611 331.648 257.448 330.695 256.815C330.371 256.6 329.989 256.285 329.843 255.916C329.688 255.523 330.024 255.219 330.32 255.021C330.652 254.8 331.004 254.577 331.369 254.371" fill="#6E7D22"/>
<path d="M353.099 375.632L352.289 375.045C358.933 365.84 359.921 352.865 354.747 342.76C352.816 338.993 350.085 335.584 347.443 332.288C344.119 328.14 340.681 323.852 338.779 318.783C335.84 310.947 336.857 302.477 338.261 293.765L338.381 293.02C339.668 285.061 340.997 276.832 338.843 269.135C336.601 261.127 329.283 253.359 321.343 254.781L321.165 253.797C329.647 252.277 337.447 260.435 339.807 268.865C342.021 276.775 340.672 285.113 339.369 293.18L339.249 293.924C337.867 302.499 336.864 310.825 339.716 318.432C341.561 323.351 344.948 327.576 348.223 331.663C350.896 334.997 353.66 338.447 355.637 342.305C360.977 352.736 359.959 366.129 353.099 375.632" fill="#4E122B"/>
<path d="M359.088 311.584C358.247 312.805 357.739 314.119 357.829 315.617C357.875 316.373 358.055 317.12 358.356 317.815C358.509 318.171 358.695 318.512 358.911 318.833C359.069 319.071 359.319 319.541 359.609 319.632C360.085 319.78 360.64 319.092 360.872 318.765C361.171 318.349 361.395 317.876 361.571 317.396C361.893 316.519 362.045 315.577 362.099 314.645C362.164 313.524 362.125 312.139 361.581 311.131C361.397 310.791 361.119 310.381 360.763 310.203C360.385 310.012 360.052 310.319 359.828 310.597C359.579 310.908 359.325 311.237 359.088 311.584" fill="#838826"/>
<path d="M326.113 424.324C324.671 423.98 323.261 423.98 321.897 424.604C321.209 424.919 320.577 425.356 320.036 425.887C319.76 426.157 319.509 426.455 319.287 426.771C319.123 427.005 318.773 427.408 318.793 427.711C318.825 428.208 319.668 428.477 320.056 428.579C320.553 428.705 321.075 428.744 321.585 428.736C322.521 428.72 323.453 428.524 324.341 428.239C325.412 427.895 326.691 427.36 327.435 426.488C327.685 426.195 327.968 425.787 328.005 425.392C328.047 424.971 327.641 424.769 327.301 424.661C326.921 424.54 326.523 424.421 326.113 424.324" fill="#838826"/>
<path d="M329.985 426.324C331.057 427.349 331.821 428.532 332.039 430.017C332.147 430.767 332.125 431.535 331.973 432.276C331.895 432.655 331.783 433.028 331.637 433.387C331.529 433.651 331.381 434.163 331.115 434.311C330.68 434.553 329.996 433.992 329.701 433.72C329.324 433.372 329.009 432.956 328.739 432.523C328.244 431.728 327.904 430.839 327.66 429.937C327.368 428.852 327.124 427.487 327.451 426.389C327.561 426.02 327.752 425.561 328.063 425.313C328.393 425.051 328.783 425.284 329.057 425.511C329.367 425.763 329.681 426.033 329.985 426.324" fill="#838826"/>
<path d="M332.003 414.032C330.552 413.725 329.144 413.76 327.796 414.419C327.115 414.752 326.493 415.204 325.968 415.749C325.699 416.027 325.455 416.329 325.24 416.652C325.083 416.889 324.744 417.301 324.771 417.604C324.816 418.1 325.665 418.348 326.056 418.437C326.556 418.553 327.077 418.579 327.588 418.557C328.524 418.519 329.449 418.297 330.331 417.989C331.392 417.619 332.656 417.052 333.379 416.163C333.623 415.861 333.893 415.447 333.921 415.051C333.952 414.629 333.54 414.439 333.2 414.339C332.816 414.228 332.415 414.12 332.003 414.032" fill="#838826"/>
<path d="M335.924 415.933C337.023 416.931 337.816 418.093 338.071 419.573C338.199 420.319 338.196 421.088 338.061 421.833C337.993 422.215 337.891 422.589 337.755 422.952C337.652 423.219 337.519 423.735 337.256 423.889C336.827 424.141 336.129 423.599 335.828 423.335C335.443 422.996 335.117 422.587 334.836 422.161C334.32 421.38 333.957 420.499 333.692 419.604C333.372 418.527 333.092 417.169 333.392 416.064C333.493 415.691 333.672 415.228 333.977 414.972C334.301 414.7 334.696 414.923 334.977 415.143C335.292 415.388 335.613 415.651 335.924 415.933" fill="#838826"/>
<path d="M331.988 400.187C330.603 400.719 329.443 401.516 328.671 402.804C328.281 403.452 328.007 404.171 327.863 404.913C327.788 405.293 327.748 405.68 327.744 406.067C327.741 406.353 327.681 406.881 327.868 407.121C328.177 407.513 329.025 407.257 329.401 407.12C329.883 406.945 330.333 406.681 330.752 406.385C331.513 405.844 332.171 405.153 332.741 404.416C333.429 403.527 334.181 402.361 334.301 401.223C334.343 400.839 334.343 400.343 334.151 399.995C333.948 399.624 333.499 399.689 333.157 399.792C332.776 399.907 332.38 400.035 331.988 400.187" fill="#838826"/>
<path d="M336.311 399.643C337.776 399.881 339.076 400.424 340.095 401.527C340.608 402.083 341.025 402.729 341.317 403.425C341.469 403.783 341.588 404.153 341.669 404.531C341.731 404.809 341.899 405.316 341.763 405.588C341.54 406.035 340.66 405.96 340.263 405.903C339.755 405.828 339.26 405.663 338.792 405.459C337.933 405.084 337.149 404.543 336.44 403.937C335.585 403.208 334.611 402.223 334.259 401.132C334.141 400.763 334.037 400.279 334.155 399.9C334.279 399.495 334.731 399.467 335.087 399.497C335.483 399.531 335.897 399.577 336.311 399.643" fill="#838826"/>
<path d="M326.715 386.951C325.475 387.765 324.509 388.792 324.029 390.213C323.787 390.929 323.671 391.691 323.687 392.447C323.696 392.833 323.739 393.22 323.816 393.599C323.875 393.879 323.928 394.409 324.163 394.603C324.547 394.919 325.321 394.491 325.66 394.276C326.093 394.003 326.477 393.649 326.823 393.271C327.453 392.58 327.948 391.765 328.349 390.923C328.832 389.909 329.319 388.611 329.196 387.472C329.153 387.087 329.049 386.603 328.788 386.304C328.511 385.985 328.085 386.143 327.773 386.316C327.424 386.511 327.065 386.72 326.715 386.951" fill="#838826"/>
<path d="M330.824 385.503C332.305 385.423 333.691 385.677 334.921 386.537C335.54 386.972 336.085 387.516 336.52 388.135C336.743 388.452 336.936 388.788 337.097 389.14C337.216 389.4 337.488 389.859 337.415 390.153C337.292 390.637 336.415 390.751 336.015 390.777C335.504 390.813 334.984 390.757 334.483 390.657C333.565 390.473 332.684 390.112 331.863 389.671C330.871 389.139 329.709 388.383 329.135 387.392C328.941 387.057 328.737 386.605 328.771 386.209C328.807 385.789 329.243 385.664 329.595 385.619C329.991 385.568 330.405 385.525 330.824 385.503" fill="#838826"/>
<path d="M320.272 360.332C318.847 360.745 317.621 361.44 316.743 362.656C316.3 363.269 315.964 363.963 315.756 364.691C315.649 365.061 315.577 365.444 315.54 365.829C315.513 366.113 315.408 366.636 315.576 366.889C315.849 367.305 316.715 367.125 317.101 367.021C317.596 366.887 318.068 366.663 318.509 366.404C319.315 365.928 320.029 365.297 320.661 364.611C321.421 363.784 322.271 362.688 322.488 361.563C322.561 361.184 322.605 360.691 322.444 360.327C322.272 359.94 321.819 359.967 321.471 360.039C321.081 360.121 320.676 360.216 320.272 360.332" fill="#838826"/>
<path d="M324.627 360.161C326.064 360.524 327.312 361.176 328.235 362.361C328.699 362.959 329.057 363.639 329.291 364.359C329.411 364.727 329.496 365.105 329.545 365.489C329.584 365.772 329.707 366.291 329.548 366.551C329.289 366.976 328.419 366.825 328.028 366.735C327.529 366.619 327.049 366.412 326.599 366.168C325.777 365.721 325.041 365.115 324.387 364.451C323.596 363.651 322.711 362.585 322.455 361.469C322.367 361.092 322.307 360.6 322.455 360.232C322.613 359.84 323.067 359.851 323.419 359.911C323.811 359.979 324.219 360.06 324.627 360.161Z" fill="#838826"/>
<path d="M321.185 374.021C319.9 374.76 318.877 375.729 318.313 377.12C318.031 377.821 317.869 378.575 317.843 379.331C317.828 379.717 317.849 380.105 317.905 380.488C317.947 380.771 317.969 381.304 318.193 381.511C318.557 381.849 319.356 381.467 319.705 381.272C320.155 381.024 320.559 380.695 320.924 380.336C321.595 379.683 322.137 378.899 322.587 378.081C323.128 377.096 323.691 375.829 323.632 374.685C323.612 374.3 323.536 373.809 323.293 373.495C323.033 373.161 322.6 373.295 322.28 373.449C321.921 373.621 321.549 373.809 321.185 374.021" fill="#838826"/>
<path d="M325.372 372.813C326.856 372.821 328.224 373.156 329.403 374.087C329.996 374.556 330.507 375.131 330.905 375.773C331.109 376.103 331.284 376.451 331.424 376.811C331.528 377.077 331.772 377.551 331.68 377.841C331.531 378.316 330.648 378.377 330.248 378.383C329.735 378.389 329.22 378.303 328.725 378.173C327.819 377.936 326.961 377.524 326.165 377.035C325.207 376.448 324.092 375.625 323.576 374.601C323.403 374.256 323.225 373.795 323.281 373.401C323.341 372.981 323.784 372.884 324.14 372.859C324.536 372.831 324.953 372.811 325.372 372.813Z" fill="#838826"/>
<path d="M324.421 342.375C322.941 342.472 321.595 342.885 320.475 343.884C319.909 344.388 319.433 344.991 319.073 345.657C318.889 345.999 318.736 346.356 318.617 346.724C318.531 346.995 318.313 347.483 318.421 347.767C318.6 348.233 319.484 348.243 319.885 348.223C320.397 348.199 320.907 348.083 321.392 347.924C322.283 347.635 323.115 347.172 323.88 346.637C324.801 345.993 325.867 345.105 326.32 344.055C326.475 343.699 326.623 343.227 326.544 342.837C326.46 342.423 326.012 342.352 325.655 342.348C325.256 342.344 324.841 342.349 324.421 342.375" fill="#838826"/>
<path d="M328.709 343.147C330.036 343.809 331.116 344.716 331.759 346.072C332.085 346.755 332.289 347.496 332.363 348.251C332.399 348.636 332.401 349.024 332.367 349.411C332.343 349.695 332.352 350.227 332.141 350.447C331.796 350.805 330.977 350.472 330.616 350.299C330.153 350.077 329.731 349.771 329.344 349.436C328.637 348.823 328.049 348.073 327.552 347.284C326.953 346.332 326.317 345.1 326.308 343.956C326.305 343.569 326.351 343.076 326.576 342.748C326.813 342.399 327.255 342.507 327.585 342.64C327.953 342.792 328.335 342.959 328.709 343.147" fill="#838826"/>
<path d="M328.584 326.043C327.104 326.137 325.757 326.552 324.637 327.551C324.072 328.055 323.595 328.659 323.236 329.324C323.052 329.665 322.899 330.023 322.78 330.391C322.693 330.663 322.477 331.149 322.585 331.433C322.763 331.899 323.647 331.909 324.047 331.889C324.56 331.865 325.069 331.749 325.555 331.591C326.444 331.301 327.277 330.837 328.043 330.304C328.964 329.66 330.029 328.773 330.483 327.721C330.637 327.365 330.785 326.893 330.705 326.504C330.623 326.089 330.175 326.017 329.817 326.013C329.42 326.009 329.003 326.015 328.584 326.043" fill="#838826"/>
<path d="M332.872 326.813C334.2 327.476 335.279 328.383 335.921 329.739C336.248 330.421 336.452 331.163 336.524 331.916C336.561 332.301 336.564 332.691 336.531 333.076C336.505 333.36 336.515 333.893 336.304 334.113C335.959 334.473 335.141 334.139 334.779 333.965C334.316 333.744 333.893 333.439 333.507 333.103C332.8 332.491 332.212 331.74 331.715 330.949C331.116 329.999 330.48 328.768 330.471 327.621C330.467 327.235 330.513 326.743 330.737 326.415C330.977 326.065 331.417 326.172 331.747 326.308C332.116 326.459 332.497 326.625 332.872 326.813" fill="#838826"/>
<path d="M328.62 308.735C327.269 309.348 326.157 310.213 325.464 311.544C325.113 312.215 324.88 312.948 324.78 313.697C324.729 314.081 324.712 314.471 324.732 314.857C324.747 315.141 324.716 315.673 324.919 315.901C325.251 316.275 326.08 315.969 326.448 315.811C326.919 315.607 327.353 315.317 327.752 314.997C328.48 314.411 329.096 313.683 329.623 312.912C330.256 311.984 330.937 310.777 330.991 309.633C331.008 309.247 330.98 308.752 330.768 308.416C330.543 308.059 330.099 308.149 329.764 308.272C329.389 308.409 329.003 308.561 328.62 308.735Z" fill="#838826"/>
<path d="M332.904 307.939C334.379 308.088 335.709 308.553 336.792 309.593C337.337 310.117 337.791 310.739 338.125 311.417C338.297 311.765 338.436 312.128 338.541 312.5C338.619 312.775 338.816 313.269 338.697 313.551C338.503 314.008 337.619 313.985 337.219 313.951C336.707 313.908 336.203 313.772 335.724 313.596C334.845 313.273 334.031 312.779 333.285 312.217C332.389 311.539 331.359 310.612 330.943 309.545C330.804 309.184 330.672 308.707 330.765 308.32C330.867 307.909 331.315 307.855 331.672 307.864C332.071 307.875 332.485 307.895 332.904 307.939" fill="#838826"/>
<path d="M322.563 290.605C321.339 291.444 320.393 292.488 319.941 293.919C319.712 294.64 319.612 295.403 319.644 296.159C319.659 296.545 319.709 296.931 319.796 297.308C319.86 297.587 319.921 298.116 320.161 298.305C320.552 298.615 321.316 298.171 321.651 297.949C322.08 297.667 322.457 297.307 322.795 296.923C323.412 296.219 323.891 295.395 324.275 294.545C324.739 293.521 325.2 292.215 325.053 291.077C325.004 290.695 324.889 290.212 324.624 289.917C324.339 289.605 323.917 289.772 323.609 289.951C323.264 290.151 322.909 290.368 322.563 290.605Z" fill="#838826"/>
<path d="M326.644 289.076C328.123 288.969 329.513 289.196 330.759 290.032C331.388 290.453 331.943 290.987 332.389 291.597C332.619 291.909 332.819 292.243 332.987 292.591C333.111 292.848 333.391 293.301 333.323 293.597C333.209 294.084 332.335 294.213 331.936 294.251C331.425 294.296 330.905 294.251 330.403 294.16C329.48 293.993 328.592 293.649 327.761 293.224C326.76 292.712 325.585 291.979 324.991 291C324.791 290.668 324.579 290.221 324.604 289.824C324.631 289.403 325.064 289.269 325.417 289.217C325.811 289.159 326.224 289.107 326.644 289.076" fill="#838826"/>
<path d="M317.088 277.012C315.865 277.851 314.92 278.895 314.468 280.327C314.239 281.048 314.139 281.809 314.168 282.565C314.185 282.952 314.236 283.337 314.321 283.716C314.385 283.993 314.448 284.523 314.688 284.712C315.079 285.021 315.843 284.577 316.177 284.357C316.605 284.075 316.983 283.715 317.32 283.329C317.937 282.625 318.417 281.803 318.801 280.952C319.264 279.928 319.725 278.621 319.58 277.484C319.531 277.101 319.416 276.619 319.148 276.325C318.865 276.012 318.443 276.179 318.136 276.357C317.791 276.557 317.435 276.775 317.088 277.012" fill="#838826"/>
<path d="M321.169 275.483C322.648 275.376 324.039 275.603 325.285 276.439C325.915 276.861 326.469 277.393 326.916 278.004C327.144 278.316 327.345 278.649 327.513 278.999C327.637 279.255 327.917 279.708 327.849 280.004C327.736 280.491 326.861 280.62 326.463 280.657C325.952 280.703 325.431 280.657 324.928 280.567C324.007 280.4 323.119 280.056 322.288 279.631C321.287 279.119 320.111 278.385 319.517 277.407C319.316 277.076 319.104 276.628 319.131 276.231C319.156 275.809 319.589 275.676 319.943 275.624C320.337 275.565 320.751 275.513 321.169 275.483" fill="#838826"/>
<path d="M313.495 261.64C312.081 262.089 310.873 262.815 310.027 264.053C309.597 264.677 309.28 265.377 309.091 266.111C308.995 266.485 308.931 266.869 308.904 267.255C308.884 267.54 308.792 268.064 308.965 268.315C309.251 268.724 310.111 268.521 310.495 268.407C310.985 268.26 311.452 268.025 311.887 267.755C312.681 267.26 313.377 266.611 313.992 265.908C314.732 265.061 315.553 263.944 315.743 262.815C315.807 262.433 315.836 261.939 315.667 261.58C315.484 261.197 315.033 261.236 314.687 261.317C314.299 261.409 313.896 261.513 313.495 261.64" fill="#838826"/>
<path d="M317.844 261.36C319.291 261.685 320.555 262.305 321.507 263.468C321.985 264.053 322.363 264.723 322.613 265.437C322.741 265.803 322.837 266.18 322.897 266.561C322.941 266.844 323.079 267.359 322.925 267.623C322.679 268.056 321.804 267.927 321.411 267.845C320.909 267.741 320.423 267.547 319.969 267.313C319.135 266.889 318.384 266.301 317.712 265.653C316.903 264.875 315.989 263.832 315.705 262.723C315.609 262.347 315.536 261.857 315.675 261.485C315.823 261.089 316.276 261.088 316.629 261.139C317.024 261.197 317.433 261.268 317.844 261.36Z" fill="#838826"/>
<path d="M323.028 432.588L322.272 431.933C327.024 426.452 332.937 419.629 334.325 411.535C335.817 402.819 332.123 394.784 328.209 386.276C325.177 379.684 322.04 372.865 321.535 365.683C320.983 357.849 323.597 350.279 326.125 342.957C327.396 339.279 328.709 335.475 329.604 331.685C331.791 322.431 331.601 312.699 329.059 303.541C327.681 298.577 325.597 293.745 323.583 289.072C321.903 285.175 320.164 281.144 318.832 277.033C318.443 275.836 318.052 274.699 317.676 273.609C315.181 266.371 313.379 261.14 317.837 253.951L318.687 254.477C314.479 261.264 316.216 266.305 318.621 273.283C318.999 274.379 319.392 275.521 319.783 276.725C321.101 280.791 322.829 284.8 324.501 288.676C326.529 293.38 328.627 298.244 330.023 303.275C332.611 312.593 332.803 322.497 330.579 331.916C329.671 335.753 328.349 339.583 327.071 343.284C324.576 350.511 321.995 357.983 322.533 365.612C323.027 372.615 326.123 379.348 329.117 385.859C332.921 394.131 336.856 402.683 335.311 411.704C333.876 420.073 327.861 427.013 323.028 432.588" fill="#4E122B"/>
<path d="M321.44 431.565C319.976 431.803 318.675 432.344 317.655 433.445C317.141 434 316.724 434.645 316.429 435.344C316.28 435.7 316.16 436.071 316.079 436.449C316.017 436.728 315.848 437.233 315.983 437.507C316.204 437.953 317.087 437.877 317.483 437.82C317.991 437.748 318.485 437.583 318.955 437.379C319.812 437.005 320.597 436.465 321.309 435.86C322.164 435.131 323.14 434.145 323.491 433.055C323.609 432.688 323.712 432.203 323.596 431.823C323.473 431.417 323.021 431.389 322.665 431.419C322.268 431.453 321.855 431.499 321.44 431.565" fill="#838826"/>
<path d="M275.055 382.035C273.897 382.963 273.033 384.076 272.689 385.536C272.516 386.273 272.472 387.04 272.56 387.793C272.605 388.177 272.685 388.557 272.799 388.927C272.883 389.2 272.985 389.723 273.239 389.893C273.651 390.173 274.38 389.673 274.699 389.427C275.103 389.113 275.453 388.725 275.76 388.316C276.321 387.569 276.739 386.711 277.057 385.835C277.443 384.779 277.805 383.441 277.573 382.319C277.495 381.94 277.347 381.468 277.057 381.195C276.752 380.904 276.343 381.101 276.048 381.304C275.72 381.528 275.383 381.772 275.055 382.035" fill="#838826"/>
<path d="M279.009 380.204C280.476 379.985 281.879 380.108 283.185 380.848C283.844 381.221 284.436 381.711 284.928 382.287C285.18 382.581 285.405 382.897 285.599 383.232C285.741 383.479 286.055 383.911 286.009 384.211C285.933 384.704 285.071 384.9 284.676 384.965C284.169 385.049 283.647 385.043 283.139 384.989C282.207 384.895 281.296 384.617 280.436 384.255C279.4 383.82 278.172 383.177 277.505 382.245C277.281 381.931 277.036 381.5 277.032 381.103C277.027 380.68 277.449 380.516 277.797 380.436C278.185 380.349 278.593 380.265 279.009 380.204" fill="#838826"/>
<path d="M278.103 364.721C276.62 364.705 275.247 365.02 274.055 365.933C273.455 366.393 272.933 366.96 272.527 367.597C272.317 367.923 272.139 368.268 271.992 368.627C271.884 368.891 271.633 369.361 271.72 369.652C271.864 370.131 272.745 370.205 273.144 370.216C273.657 370.231 274.173 370.151 274.671 370.029C275.58 369.805 276.444 369.407 277.247 368.931C278.213 368.357 279.341 367.551 279.872 366.536C280.052 366.195 280.235 365.733 280.185 365.34C280.132 364.919 279.691 364.815 279.336 364.784C278.937 364.751 278.524 364.725 278.103 364.721" fill="#838826"/>
<path d="M282.323 365.808C283.596 366.568 284.605 367.551 285.147 368.951C285.421 369.657 285.569 370.412 285.585 371.168C285.593 371.555 285.568 371.943 285.505 372.325C285.459 372.607 285.428 373.139 285.201 373.343C284.832 373.676 284.04 373.281 283.693 373.081C283.248 372.827 282.848 372.491 282.488 372.128C281.828 371.464 281.299 370.672 280.861 369.848C280.335 368.855 279.792 367.58 279.867 366.436C279.892 366.051 279.976 365.563 280.223 365.251C280.487 364.921 280.919 365.061 281.237 365.22C281.593 365.399 281.963 365.592 282.323 365.808Z" fill="#838826"/>
<path d="M284.571 350.607C283.088 350.592 281.715 350.907 280.524 351.819C279.921 352.28 279.403 352.847 278.993 353.483C278.785 353.809 278.605 354.153 278.46 354.513C278.353 354.777 278.101 355.248 278.189 355.539C278.331 356.017 279.212 356.091 279.613 356.103C280.125 356.116 280.643 356.037 281.139 355.916C282.047 355.693 282.913 355.293 283.715 354.816C284.681 354.244 285.809 353.437 286.34 352.421C286.52 352.08 286.703 351.62 286.653 351.225C286.6 350.805 286.159 350.7 285.804 350.671C285.407 350.637 284.991 350.611 284.571 350.607" fill="#838826"/>
<path d="M288.791 351.695C290.064 352.455 291.073 353.437 291.615 354.837C291.888 355.543 292.036 356.297 292.053 357.055C292.061 357.441 292.035 357.829 291.973 358.211C291.927 358.492 291.897 359.025 291.671 359.228C291.3 359.563 290.509 359.167 290.161 358.968C289.716 358.712 289.316 358.376 288.956 358.015C288.296 357.351 287.765 356.559 287.329 355.735C286.803 354.741 286.259 353.467 286.335 352.323C286.36 351.936 286.443 351.448 286.692 351.139C286.955 350.807 287.387 350.948 287.705 351.107C288.063 351.285 288.429 351.479 288.791 351.695" fill="#838826"/>
<path d="M287.952 333.58C286.507 333.912 285.244 334.536 284.299 335.701C283.82 336.289 283.447 336.961 283.199 337.676C283.072 338.041 282.977 338.417 282.919 338.801C282.875 339.084 282.741 339.599 282.893 339.861C283.144 340.293 284.017 340.161 284.411 340.079C284.912 339.972 285.395 339.776 285.851 339.541C286.683 339.113 287.429 338.524 288.099 337.873C288.907 337.091 289.815 336.044 290.095 334.933C290.191 334.559 290.261 334.068 290.121 333.696C289.972 333.301 289.519 333.301 289.165 333.355C288.771 333.415 288.363 333.487 287.952 333.58" fill="#838826"/>
<path d="M292.309 333.656C293.725 334.097 294.935 334.819 295.788 336.055C296.217 336.677 296.537 337.376 296.729 338.108C296.828 338.483 296.892 338.865 296.921 339.252C296.941 339.536 297.036 340.061 296.864 340.312C296.581 340.723 295.719 340.523 295.335 340.411C294.843 340.265 294.376 340.031 293.94 339.763C293.144 339.271 292.445 338.624 291.828 337.924C291.085 337.081 290.259 335.968 290.067 334.837C290.001 334.456 289.969 333.963 290.139 333.603C290.317 333.22 290.769 333.256 291.117 333.336C291.505 333.427 291.908 333.529 292.309 333.656" fill="#838826"/>
<path d="M285.447 316.084C284.064 316.621 282.905 317.423 282.137 318.712C281.751 319.363 281.477 320.081 281.335 320.825C281.263 321.205 281.224 321.592 281.221 321.979C281.22 322.264 281.16 322.795 281.351 323.032C281.66 323.423 282.507 323.165 282.881 323.028C283.364 322.851 283.813 322.585 284.229 322.288C284.991 321.744 285.644 321.051 286.213 320.311C286.899 319.42 287.645 318.252 287.763 317.113C287.803 316.728 287.803 316.233 287.609 315.887C287.404 315.516 286.956 315.583 286.615 315.687C286.233 315.803 285.837 315.932 285.447 316.084" fill="#838826"/>
<path d="M289.768 315.528C291.233 315.761 292.535 316.3 293.557 317.399C294.073 317.952 294.491 318.597 294.787 319.293C294.939 319.651 295.057 320.02 295.143 320.399C295.203 320.676 295.373 321.181 295.239 321.455C295.019 321.903 294.137 321.829 293.74 321.773C293.232 321.701 292.736 321.537 292.267 321.335C291.408 320.963 290.623 320.424 289.911 319.821C289.052 319.095 288.076 318.112 287.72 317.023C287.601 316.655 287.497 316.171 287.612 315.791C287.735 315.385 288.187 315.356 288.541 315.385C288.939 315.417 289.353 315.461 289.768 315.528" fill="#838826"/>
<path d="M280.473 297.467C279.089 298.004 277.932 298.805 277.164 300.095C276.777 300.745 276.505 301.464 276.363 302.207C276.289 302.587 276.252 302.975 276.249 303.361C276.248 303.647 276.188 304.176 276.377 304.415C276.688 304.805 277.533 304.548 277.909 304.409C278.391 304.232 278.84 303.968 279.256 303.669C280.017 303.125 280.672 302.433 281.241 301.693C281.925 300.803 282.673 299.636 282.791 298.496C282.829 298.111 282.829 297.615 282.637 297.268C282.431 296.899 281.983 296.964 281.643 297.068C281.26 297.184 280.865 297.315 280.473 297.467" fill="#838826"/>
<path d="M284.796 296.911C286.26 297.143 287.561 297.681 288.585 298.78C289.1 299.335 289.519 299.979 289.813 300.676C289.965 301.032 290.085 301.403 290.169 301.78C290.231 302.059 290.4 302.564 290.265 302.837C290.045 303.284 289.164 303.211 288.767 303.155C288.259 303.084 287.763 302.92 287.295 302.717C286.435 302.345 285.648 301.807 284.937 301.204C284.08 300.476 283.103 299.495 282.748 298.405C282.628 298.037 282.524 297.553 282.64 297.172C282.761 296.768 283.213 296.737 283.569 296.767C283.967 296.8 284.38 296.844 284.796 296.911Z" fill="#838826"/>
<path d="M279.745 279.481C278.277 279.7 276.971 280.225 275.937 281.315C275.416 281.863 274.991 282.504 274.689 283.197C274.533 283.553 274.411 283.921 274.323 284.299C274.257 284.577 274.084 285.08 274.216 285.355C274.432 285.804 275.313 285.74 275.711 285.688C276.22 285.62 276.717 285.461 277.189 285.264C278.051 284.9 278.843 284.369 279.56 283.773C280.424 283.056 281.412 282.083 281.777 280.996C281.9 280.629 282.009 280.147 281.899 279.765C281.78 279.36 281.327 279.325 280.972 279.351C280.575 279.38 280.16 279.42 279.745 279.481" fill="#838826"/>
<path d="M284.083 279.892C285.46 280.443 286.611 281.255 287.367 282.553C287.747 283.207 288.012 283.928 288.147 284.673C288.216 285.055 288.251 285.441 288.249 285.829C288.248 286.113 288.303 286.644 288.111 286.881C287.797 287.268 286.953 287.003 286.579 286.86C286.099 286.679 285.651 286.409 285.239 286.108C284.483 285.556 283.835 284.857 283.273 284.111C282.597 283.213 281.861 282.039 281.755 280.899C281.72 280.513 281.725 280.019 281.921 279.672C282.131 279.305 282.579 279.376 282.919 279.483C283.299 279.603 283.693 279.736 284.083 279.892" fill="#838826"/>
<path d="M284.484 263.536C283.001 263.515 281.627 263.821 280.429 264.728C279.827 265.185 279.305 265.749 278.893 266.384C278.683 266.709 278.501 267.053 278.355 267.412C278.245 267.675 277.991 268.143 278.077 268.436C278.217 268.915 279.097 268.993 279.499 269.007C280.011 269.023 280.528 268.947 281.025 268.828C281.935 268.609 282.803 268.213 283.607 267.741C284.577 267.173 285.708 266.373 286.245 265.361C286.425 265.019 286.611 264.56 286.563 264.165C286.512 263.745 286.072 263.639 285.716 263.607C285.319 263.571 284.904 263.543 284.484 263.536" fill="#838826"/>
<path d="M288.699 264.645C289.969 265.412 290.972 266.4 291.507 267.803C291.776 268.509 291.921 269.264 291.933 270.021C291.94 270.408 291.912 270.796 291.848 271.179C291.8 271.46 291.767 271.991 291.54 272.195C291.168 272.525 290.379 272.127 290.032 271.925C289.588 271.668 289.191 271.331 288.832 270.965C288.175 270.299 287.649 269.504 287.216 268.677C286.695 267.681 286.159 266.404 286.24 265.26C286.267 264.875 286.352 264.387 286.601 264.079C286.867 263.749 287.299 263.891 287.616 264.052C287.972 264.232 288.339 264.428 288.699 264.645" fill="#838826"/>
<path d="M307.891 375.148C305.012 370.845 305.88 365.531 306.653 362.747C307.408 360.031 308.611 357.448 309.773 354.951C310.349 353.715 310.925 352.477 311.451 351.223C316.311 339.596 316.625 326.14 312.313 314.303C311.023 310.755 309.309 307.299 307.651 303.956C305.972 300.569 304.235 297.068 302.921 293.444C296.125 274.695 302.168 260.611 310.088 253.681L310.748 254.433C303.076 261.145 297.237 274.828 303.861 293.103C305.155 296.673 306.879 300.151 308.547 303.512C310.216 306.879 311.944 310.36 313.255 313.96C317.649 326.031 317.328 339.752 312.372 351.608C311.843 352.876 311.261 354.125 310.68 355.372C309.533 357.833 308.349 360.377 307.617 363.015C306.889 365.635 306.065 370.621 308.721 374.591L307.891 375.148Z" fill="#4E122B"/>
<path d="M307.115 375.959C306.949 377.433 307.123 378.831 307.909 380.109C308.307 380.753 308.816 381.328 309.409 381.8C309.712 382.039 310.037 382.253 310.379 382.435C310.632 382.569 311.073 382.865 311.372 382.809C311.863 382.716 312.027 381.847 312.079 381.449C312.144 380.941 312.119 380.419 312.047 379.913C311.919 378.985 311.608 378.084 311.216 377.239C310.744 376.219 310.056 375.015 309.1 374.383C308.777 374.169 308.339 373.94 307.941 373.951C307.52 373.961 307.369 374.389 307.304 374.74C307.229 375.131 307.161 375.541 307.115 375.959" fill="#6E7D22"/>
<path d="M282.416 393.167C275.705 386.655 276.256 375.725 279.009 367.669C280.211 364.145 281.809 360.713 283.353 357.395C285.493 352.795 287.707 348.037 288.853 343.045C291.313 332.327 288.873 321.201 285.927 309.797L285.669 308.801C282.909 298.136 280.055 287.109 281.7 276.156C282.945 267.863 288.416 258.857 294.423 255.208C297.417 253.389 300.467 252.931 303.232 253.879L302.909 254.825C300.395 253.963 297.712 254.379 294.943 256.063C289.163 259.573 283.895 268.276 282.689 276.304C281.075 287.056 283.903 297.983 286.639 308.551L286.896 309.548C289.873 321.076 292.339 332.331 289.827 343.269C288.657 348.364 286.421 353.169 284.259 357.816C282.727 361.112 281.141 364.52 279.955 367.992C277.303 375.759 276.737 386.263 283.111 392.448L282.416 393.167" fill="#4E122B"/>
<path d="M281.556 393.685C281.545 395.168 281.864 396.54 282.78 397.729C283.243 398.328 283.811 398.847 284.448 399.252C284.775 399.461 285.12 399.639 285.479 399.784C285.744 399.891 286.215 400.14 286.507 400.053C286.983 399.909 287.056 399.028 287.065 398.627C287.079 398.115 286.997 397.597 286.875 397.101C286.648 396.195 286.247 395.329 285.768 394.528C285.192 393.564 284.383 392.439 283.367 391.911C283.024 391.732 282.563 391.549 282.168 391.6C281.749 391.655 281.645 392.096 281.616 392.452C281.584 392.849 281.559 393.264 281.556 393.685" fill="#838826"/>
<path d="M264.699 338.388L263.869 337.828C269.836 328.971 273.252 318.648 273.745 307.98C273.937 303.808 273.684 299.511 273.437 295.356C272.984 287.725 272.517 279.836 274.803 272.419C276.912 265.576 281.403 256.707 287.12 254.228C289.296 253.285 291.481 253.335 293.612 254.375L293.175 255.273C291.316 254.367 289.413 254.325 287.517 255.147C282.459 257.339 277.967 265.549 275.757 272.713C273.527 279.957 273.988 287.755 274.435 295.296C274.684 299.477 274.94 303.803 274.745 308.027C274.243 318.879 270.768 329.376 264.699 338.388" fill="#4E122B"/>
<path d="M262.813 338.083C261.589 338.92 260.645 339.965 260.193 341.396C259.965 342.117 259.864 342.879 259.895 343.636C259.911 344.023 259.961 344.408 260.047 344.785C260.111 345.064 260.175 345.592 260.413 345.781C260.804 346.091 261.569 345.647 261.903 345.427C262.331 345.144 262.708 344.784 263.045 344.4C263.663 343.695 264.143 342.871 264.527 342.023C264.989 340.997 265.452 339.691 265.305 338.555C265.255 338.171 265.143 337.689 264.875 337.395C264.589 337.083 264.169 337.249 263.861 337.427C263.516 337.628 263.16 337.844 262.813 338.083Z" fill="#6E7D22"/>
<path d="M632.679 599.849H53.0484V598.849H632.679V599.849Z" fill="#4E122B"/>
</svg>
